M48
; DRILL file {KiCad 7.0.10} date Sat Feb 14 21:30:50 2026
; FORMAT={-:-/ absolute / inch / decimal}
; #@! TF.CreationDate,2026-02-14T21:30:50-08:00
; #@! TF.GenerationSoftware,Kicad,Pcbnew,7.0.10
; #@! TF.FileFunction,Plated,1,2,PTH
FMAT,2
INCH
; #@! TA.AperFunction,Plated,PTH,ViaDrill
T1C0.0118
; #@! TA.AperFunction,Plated,PTH,ComponentDrill
T2C0.0394
; #@! TA.AperFunction,Plated,PTH,ComponentDrill
T3C0.0787
%
G90
G05
T1
X4.3964Y-3.7799
X4.722Y-3.3263
X4.738Y-3.3567
X4.7771Y-2.9138
X4.7846Y-3.8271
X4.808Y-3.7822
X4.808Y-4.4669
X5.2226Y-4.5172
X5.4189Y-3.3244
X5.5062Y-3.6568
X5.5062Y-3.8636
X5.5128Y-3.2511
X5.5924Y-2.9051
X5.7801Y-3.0927
X6.2301Y-3.6526
X6.2715Y-3.0781
X6.2857Y-2.8038
X6.291Y-3.6211
X6.291Y-4.0121
X6.344Y-2.8859
X7.2671Y-2.7864
X7.3356Y-2.5491
X7.3718Y-2.7566
X7.3795Y-2.7309
X7.4091Y-2.9835
X7.4495Y-3.5687
X7.4589Y-3.3785
X7.4945Y-3.5566
X7.5252Y-2.9635
X7.6986Y-3.0407
X7.7212Y-3.0712
T2
X7.4902Y-3.7106
X7.4902Y-4.2815
X7.5886Y-4.2815
X7.687Y-3.7106
X7.687Y-4.2815
T3
G00X7.3681Y-4.0079
M15
G01X7.3681Y-3.9646
M16
G05
G00X7.8091Y-4.0079
M15
G01X7.8091Y-3.9646
M16
G05
M30
