%TF.GenerationSoftware,KiCad,Pcbnew,7.0.10*%
%TF.CreationDate,2026-02-14T21:30:48-08:00*%
%TF.ProjectId,12kempV2.1,31326b65-6d70-4563-922e-312e6b696361,rev?*%
%TF.SameCoordinates,Original*%
%TF.FileFunction,Legend,Bot*%
%TF.FilePolarity,Positive*%
%FSLAX46Y46*%
G04 Gerber Fmt 4.6, Leading zero omitted, Abs format (unit mm)*
G04 Created by KiCad (PCBNEW 7.0.10) date 2026-02-14 21:30:48*
%MOMM*%
%LPD*%
G01*
G04 APERTURE LIST*
%ADD10C,0.150000*%
%ADD11C,0.152400*%
%ADD12C,0.120000*%
G04 APERTURE END LIST*
D10*
X130060832Y-62852200D02*
X129917975Y-62899819D01*
X129917975Y-62899819D02*
X129679880Y-62899819D01*
X129679880Y-62899819D02*
X129584642Y-62852200D01*
X129584642Y-62852200D02*
X129537023Y-62804580D01*
X129537023Y-62804580D02*
X129489404Y-62709342D01*
X129489404Y-62709342D02*
X129489404Y-62614104D01*
X129489404Y-62614104D02*
X129537023Y-62518866D01*
X129537023Y-62518866D02*
X129584642Y-62471247D01*
X129584642Y-62471247D02*
X129679880Y-62423628D01*
X129679880Y-62423628D02*
X129870356Y-62376009D01*
X129870356Y-62376009D02*
X129965594Y-62328390D01*
X129965594Y-62328390D02*
X130013213Y-62280771D01*
X130013213Y-62280771D02*
X130060832Y-62185533D01*
X130060832Y-62185533D02*
X130060832Y-62090295D01*
X130060832Y-62090295D02*
X130013213Y-61995057D01*
X130013213Y-61995057D02*
X129965594Y-61947438D01*
X129965594Y-61947438D02*
X129870356Y-61899819D01*
X129870356Y-61899819D02*
X129632261Y-61899819D01*
X129632261Y-61899819D02*
X129489404Y-61947438D01*
X129156070Y-61899819D02*
X128917975Y-62899819D01*
X128917975Y-62899819D02*
X128727499Y-62185533D01*
X128727499Y-62185533D02*
X128537023Y-62899819D01*
X128537023Y-62899819D02*
X128298928Y-61899819D01*
X127965594Y-61995057D02*
X127917975Y-61947438D01*
X127917975Y-61947438D02*
X127822737Y-61899819D01*
X127822737Y-61899819D02*
X127584642Y-61899819D01*
X127584642Y-61899819D02*
X127489404Y-61947438D01*
X127489404Y-61947438D02*
X127441785Y-61995057D01*
X127441785Y-61995057D02*
X127394166Y-62090295D01*
X127394166Y-62090295D02*
X127394166Y-62185533D01*
X127394166Y-62185533D02*
X127441785Y-62328390D01*
X127441785Y-62328390D02*
X128013213Y-62899819D01*
X128013213Y-62899819D02*
X127394166Y-62899819D01*
X149110832Y-81822200D02*
X148967975Y-81869819D01*
X148967975Y-81869819D02*
X148729880Y-81869819D01*
X148729880Y-81869819D02*
X148634642Y-81822200D01*
X148634642Y-81822200D02*
X148587023Y-81774580D01*
X148587023Y-81774580D02*
X148539404Y-81679342D01*
X148539404Y-81679342D02*
X148539404Y-81584104D01*
X148539404Y-81584104D02*
X148587023Y-81488866D01*
X148587023Y-81488866D02*
X148634642Y-81441247D01*
X148634642Y-81441247D02*
X148729880Y-81393628D01*
X148729880Y-81393628D02*
X148920356Y-81346009D01*
X148920356Y-81346009D02*
X149015594Y-81298390D01*
X149015594Y-81298390D02*
X149063213Y-81250771D01*
X149063213Y-81250771D02*
X149110832Y-81155533D01*
X149110832Y-81155533D02*
X149110832Y-81060295D01*
X149110832Y-81060295D02*
X149063213Y-80965057D01*
X149063213Y-80965057D02*
X149015594Y-80917438D01*
X149015594Y-80917438D02*
X148920356Y-80869819D01*
X148920356Y-80869819D02*
X148682261Y-80869819D01*
X148682261Y-80869819D02*
X148539404Y-80917438D01*
X148206070Y-80869819D02*
X147967975Y-81869819D01*
X147967975Y-81869819D02*
X147777499Y-81155533D01*
X147777499Y-81155533D02*
X147587023Y-81869819D01*
X147587023Y-81869819D02*
X147348928Y-80869819D01*
X147063213Y-80869819D02*
X146396547Y-80869819D01*
X146396547Y-80869819D02*
X146825118Y-81869819D01*
X111010832Y-81902200D02*
X110867975Y-81949819D01*
X110867975Y-81949819D02*
X110629880Y-81949819D01*
X110629880Y-81949819D02*
X110534642Y-81902200D01*
X110534642Y-81902200D02*
X110487023Y-81854580D01*
X110487023Y-81854580D02*
X110439404Y-81759342D01*
X110439404Y-81759342D02*
X110439404Y-81664104D01*
X110439404Y-81664104D02*
X110487023Y-81568866D01*
X110487023Y-81568866D02*
X110534642Y-81521247D01*
X110534642Y-81521247D02*
X110629880Y-81473628D01*
X110629880Y-81473628D02*
X110820356Y-81426009D01*
X110820356Y-81426009D02*
X110915594Y-81378390D01*
X110915594Y-81378390D02*
X110963213Y-81330771D01*
X110963213Y-81330771D02*
X111010832Y-81235533D01*
X111010832Y-81235533D02*
X111010832Y-81140295D01*
X111010832Y-81140295D02*
X110963213Y-81045057D01*
X110963213Y-81045057D02*
X110915594Y-80997438D01*
X110915594Y-80997438D02*
X110820356Y-80949819D01*
X110820356Y-80949819D02*
X110582261Y-80949819D01*
X110582261Y-80949819D02*
X110439404Y-80997438D01*
X110106070Y-80949819D02*
X109867975Y-81949819D01*
X109867975Y-81949819D02*
X109677499Y-81235533D01*
X109677499Y-81235533D02*
X109487023Y-81949819D01*
X109487023Y-81949819D02*
X109248928Y-80949819D01*
X108391785Y-80949819D02*
X108867975Y-80949819D01*
X108867975Y-80949819D02*
X108915594Y-81426009D01*
X108915594Y-81426009D02*
X108867975Y-81378390D01*
X108867975Y-81378390D02*
X108772737Y-81330771D01*
X108772737Y-81330771D02*
X108534642Y-81330771D01*
X108534642Y-81330771D02*
X108439404Y-81378390D01*
X108439404Y-81378390D02*
X108391785Y-81426009D01*
X108391785Y-81426009D02*
X108344166Y-81521247D01*
X108344166Y-81521247D02*
X108344166Y-81759342D01*
X108344166Y-81759342D02*
X108391785Y-81854580D01*
X108391785Y-81854580D02*
X108439404Y-81902200D01*
X108439404Y-81902200D02*
X108534642Y-81949819D01*
X108534642Y-81949819D02*
X108772737Y-81949819D01*
X108772737Y-81949819D02*
X108867975Y-81902200D01*
X108867975Y-81902200D02*
X108915594Y-81854580D01*
X149599523Y-100872200D02*
X149456666Y-100919819D01*
X149456666Y-100919819D02*
X149218571Y-100919819D01*
X149218571Y-100919819D02*
X149123333Y-100872200D01*
X149123333Y-100872200D02*
X149075714Y-100824580D01*
X149075714Y-100824580D02*
X149028095Y-100729342D01*
X149028095Y-100729342D02*
X149028095Y-100634104D01*
X149028095Y-100634104D02*
X149075714Y-100538866D01*
X149075714Y-100538866D02*
X149123333Y-100491247D01*
X149123333Y-100491247D02*
X149218571Y-100443628D01*
X149218571Y-100443628D02*
X149409047Y-100396009D01*
X149409047Y-100396009D02*
X149504285Y-100348390D01*
X149504285Y-100348390D02*
X149551904Y-100300771D01*
X149551904Y-100300771D02*
X149599523Y-100205533D01*
X149599523Y-100205533D02*
X149599523Y-100110295D01*
X149599523Y-100110295D02*
X149551904Y-100015057D01*
X149551904Y-100015057D02*
X149504285Y-99967438D01*
X149504285Y-99967438D02*
X149409047Y-99919819D01*
X149409047Y-99919819D02*
X149170952Y-99919819D01*
X149170952Y-99919819D02*
X149028095Y-99967438D01*
X148694761Y-99919819D02*
X148456666Y-100919819D01*
X148456666Y-100919819D02*
X148266190Y-100205533D01*
X148266190Y-100205533D02*
X148075714Y-100919819D01*
X148075714Y-100919819D02*
X147837619Y-99919819D01*
X146932857Y-100919819D02*
X147504285Y-100919819D01*
X147218571Y-100919819D02*
X147218571Y-99919819D01*
X147218571Y-99919819D02*
X147313809Y-100062676D01*
X147313809Y-100062676D02*
X147409047Y-100157914D01*
X147409047Y-100157914D02*
X147504285Y-100205533D01*
X145980476Y-100919819D02*
X146551904Y-100919819D01*
X146266190Y-100919819D02*
X146266190Y-99919819D01*
X146266190Y-99919819D02*
X146361428Y-100062676D01*
X146361428Y-100062676D02*
X146456666Y-100157914D01*
X146456666Y-100157914D02*
X146551904Y-100205533D01*
X130537023Y-100952200D02*
X130394166Y-100999819D01*
X130394166Y-100999819D02*
X130156071Y-100999819D01*
X130156071Y-100999819D02*
X130060833Y-100952200D01*
X130060833Y-100952200D02*
X130013214Y-100904580D01*
X130013214Y-100904580D02*
X129965595Y-100809342D01*
X129965595Y-100809342D02*
X129965595Y-100714104D01*
X129965595Y-100714104D02*
X130013214Y-100618866D01*
X130013214Y-100618866D02*
X130060833Y-100571247D01*
X130060833Y-100571247D02*
X130156071Y-100523628D01*
X130156071Y-100523628D02*
X130346547Y-100476009D01*
X130346547Y-100476009D02*
X130441785Y-100428390D01*
X130441785Y-100428390D02*
X130489404Y-100380771D01*
X130489404Y-100380771D02*
X130537023Y-100285533D01*
X130537023Y-100285533D02*
X130537023Y-100190295D01*
X130537023Y-100190295D02*
X130489404Y-100095057D01*
X130489404Y-100095057D02*
X130441785Y-100047438D01*
X130441785Y-100047438D02*
X130346547Y-99999819D01*
X130346547Y-99999819D02*
X130108452Y-99999819D01*
X130108452Y-99999819D02*
X129965595Y-100047438D01*
X129632261Y-99999819D02*
X129394166Y-100999819D01*
X129394166Y-100999819D02*
X129203690Y-100285533D01*
X129203690Y-100285533D02*
X129013214Y-100999819D01*
X129013214Y-100999819D02*
X128775119Y-99999819D01*
X127870357Y-100999819D02*
X128441785Y-100999819D01*
X128156071Y-100999819D02*
X128156071Y-99999819D01*
X128156071Y-99999819D02*
X128251309Y-100142676D01*
X128251309Y-100142676D02*
X128346547Y-100237914D01*
X128346547Y-100237914D02*
X128441785Y-100285533D01*
X127251309Y-99999819D02*
X127156071Y-99999819D01*
X127156071Y-99999819D02*
X127060833Y-100047438D01*
X127060833Y-100047438D02*
X127013214Y-100095057D01*
X127013214Y-100095057D02*
X126965595Y-100190295D01*
X126965595Y-100190295D02*
X126917976Y-100380771D01*
X126917976Y-100380771D02*
X126917976Y-100618866D01*
X126917976Y-100618866D02*
X126965595Y-100809342D01*
X126965595Y-100809342D02*
X127013214Y-100904580D01*
X127013214Y-100904580D02*
X127060833Y-100952200D01*
X127060833Y-100952200D02*
X127156071Y-100999819D01*
X127156071Y-100999819D02*
X127251309Y-100999819D01*
X127251309Y-100999819D02*
X127346547Y-100952200D01*
X127346547Y-100952200D02*
X127394166Y-100904580D01*
X127394166Y-100904580D02*
X127441785Y-100809342D01*
X127441785Y-100809342D02*
X127489404Y-100618866D01*
X127489404Y-100618866D02*
X127489404Y-100380771D01*
X127489404Y-100380771D02*
X127441785Y-100190295D01*
X127441785Y-100190295D02*
X127394166Y-100095057D01*
X127394166Y-100095057D02*
X127346547Y-100047438D01*
X127346547Y-100047438D02*
X127251309Y-99999819D01*
X111010832Y-62852200D02*
X110867975Y-62899819D01*
X110867975Y-62899819D02*
X110629880Y-62899819D01*
X110629880Y-62899819D02*
X110534642Y-62852200D01*
X110534642Y-62852200D02*
X110487023Y-62804580D01*
X110487023Y-62804580D02*
X110439404Y-62709342D01*
X110439404Y-62709342D02*
X110439404Y-62614104D01*
X110439404Y-62614104D02*
X110487023Y-62518866D01*
X110487023Y-62518866D02*
X110534642Y-62471247D01*
X110534642Y-62471247D02*
X110629880Y-62423628D01*
X110629880Y-62423628D02*
X110820356Y-62376009D01*
X110820356Y-62376009D02*
X110915594Y-62328390D01*
X110915594Y-62328390D02*
X110963213Y-62280771D01*
X110963213Y-62280771D02*
X111010832Y-62185533D01*
X111010832Y-62185533D02*
X111010832Y-62090295D01*
X111010832Y-62090295D02*
X110963213Y-61995057D01*
X110963213Y-61995057D02*
X110915594Y-61947438D01*
X110915594Y-61947438D02*
X110820356Y-61899819D01*
X110820356Y-61899819D02*
X110582261Y-61899819D01*
X110582261Y-61899819D02*
X110439404Y-61947438D01*
X110106070Y-61899819D02*
X109867975Y-62899819D01*
X109867975Y-62899819D02*
X109677499Y-62185533D01*
X109677499Y-62185533D02*
X109487023Y-62899819D01*
X109487023Y-62899819D02*
X109248928Y-61899819D01*
X108344166Y-62899819D02*
X108915594Y-62899819D01*
X108629880Y-62899819D02*
X108629880Y-61899819D01*
X108629880Y-61899819D02*
X108725118Y-62042676D01*
X108725118Y-62042676D02*
X108820356Y-62137914D01*
X108820356Y-62137914D02*
X108915594Y-62185533D01*
X168160832Y-81902200D02*
X168017975Y-81949819D01*
X168017975Y-81949819D02*
X167779880Y-81949819D01*
X167779880Y-81949819D02*
X167684642Y-81902200D01*
X167684642Y-81902200D02*
X167637023Y-81854580D01*
X167637023Y-81854580D02*
X167589404Y-81759342D01*
X167589404Y-81759342D02*
X167589404Y-81664104D01*
X167589404Y-81664104D02*
X167637023Y-81568866D01*
X167637023Y-81568866D02*
X167684642Y-81521247D01*
X167684642Y-81521247D02*
X167779880Y-81473628D01*
X167779880Y-81473628D02*
X167970356Y-81426009D01*
X167970356Y-81426009D02*
X168065594Y-81378390D01*
X168065594Y-81378390D02*
X168113213Y-81330771D01*
X168113213Y-81330771D02*
X168160832Y-81235533D01*
X168160832Y-81235533D02*
X168160832Y-81140295D01*
X168160832Y-81140295D02*
X168113213Y-81045057D01*
X168113213Y-81045057D02*
X168065594Y-80997438D01*
X168065594Y-80997438D02*
X167970356Y-80949819D01*
X167970356Y-80949819D02*
X167732261Y-80949819D01*
X167732261Y-80949819D02*
X167589404Y-80997438D01*
X167256070Y-80949819D02*
X167017975Y-81949819D01*
X167017975Y-81949819D02*
X166827499Y-81235533D01*
X166827499Y-81235533D02*
X166637023Y-81949819D01*
X166637023Y-81949819D02*
X166398928Y-80949819D01*
X165875118Y-81378390D02*
X165970356Y-81330771D01*
X165970356Y-81330771D02*
X166017975Y-81283152D01*
X166017975Y-81283152D02*
X166065594Y-81187914D01*
X166065594Y-81187914D02*
X166065594Y-81140295D01*
X166065594Y-81140295D02*
X166017975Y-81045057D01*
X166017975Y-81045057D02*
X165970356Y-80997438D01*
X165970356Y-80997438D02*
X165875118Y-80949819D01*
X165875118Y-80949819D02*
X165684642Y-80949819D01*
X165684642Y-80949819D02*
X165589404Y-80997438D01*
X165589404Y-80997438D02*
X165541785Y-81045057D01*
X165541785Y-81045057D02*
X165494166Y-81140295D01*
X165494166Y-81140295D02*
X165494166Y-81187914D01*
X165494166Y-81187914D02*
X165541785Y-81283152D01*
X165541785Y-81283152D02*
X165589404Y-81330771D01*
X165589404Y-81330771D02*
X165684642Y-81378390D01*
X165684642Y-81378390D02*
X165875118Y-81378390D01*
X165875118Y-81378390D02*
X165970356Y-81426009D01*
X165970356Y-81426009D02*
X166017975Y-81473628D01*
X166017975Y-81473628D02*
X166065594Y-81568866D01*
X166065594Y-81568866D02*
X166065594Y-81759342D01*
X166065594Y-81759342D02*
X166017975Y-81854580D01*
X166017975Y-81854580D02*
X165970356Y-81902200D01*
X165970356Y-81902200D02*
X165875118Y-81949819D01*
X165875118Y-81949819D02*
X165684642Y-81949819D01*
X165684642Y-81949819D02*
X165589404Y-81902200D01*
X165589404Y-81902200D02*
X165541785Y-81854580D01*
X165541785Y-81854580D02*
X165494166Y-81759342D01*
X165494166Y-81759342D02*
X165494166Y-81568866D01*
X165494166Y-81568866D02*
X165541785Y-81473628D01*
X165541785Y-81473628D02*
X165589404Y-81426009D01*
X165589404Y-81426009D02*
X165684642Y-81378390D01*
X130060832Y-81902200D02*
X129917975Y-81949819D01*
X129917975Y-81949819D02*
X129679880Y-81949819D01*
X129679880Y-81949819D02*
X129584642Y-81902200D01*
X129584642Y-81902200D02*
X129537023Y-81854580D01*
X129537023Y-81854580D02*
X129489404Y-81759342D01*
X129489404Y-81759342D02*
X129489404Y-81664104D01*
X129489404Y-81664104D02*
X129537023Y-81568866D01*
X129537023Y-81568866D02*
X129584642Y-81521247D01*
X129584642Y-81521247D02*
X129679880Y-81473628D01*
X129679880Y-81473628D02*
X129870356Y-81426009D01*
X129870356Y-81426009D02*
X129965594Y-81378390D01*
X129965594Y-81378390D02*
X130013213Y-81330771D01*
X130013213Y-81330771D02*
X130060832Y-81235533D01*
X130060832Y-81235533D02*
X130060832Y-81140295D01*
X130060832Y-81140295D02*
X130013213Y-81045057D01*
X130013213Y-81045057D02*
X129965594Y-80997438D01*
X129965594Y-80997438D02*
X129870356Y-80949819D01*
X129870356Y-80949819D02*
X129632261Y-80949819D01*
X129632261Y-80949819D02*
X129489404Y-80997438D01*
X129156070Y-80949819D02*
X128917975Y-81949819D01*
X128917975Y-81949819D02*
X128727499Y-81235533D01*
X128727499Y-81235533D02*
X128537023Y-81949819D01*
X128537023Y-81949819D02*
X128298928Y-80949819D01*
X127489404Y-80949819D02*
X127679880Y-80949819D01*
X127679880Y-80949819D02*
X127775118Y-80997438D01*
X127775118Y-80997438D02*
X127822737Y-81045057D01*
X127822737Y-81045057D02*
X127917975Y-81187914D01*
X127917975Y-81187914D02*
X127965594Y-81378390D01*
X127965594Y-81378390D02*
X127965594Y-81759342D01*
X127965594Y-81759342D02*
X127917975Y-81854580D01*
X127917975Y-81854580D02*
X127870356Y-81902200D01*
X127870356Y-81902200D02*
X127775118Y-81949819D01*
X127775118Y-81949819D02*
X127584642Y-81949819D01*
X127584642Y-81949819D02*
X127489404Y-81902200D01*
X127489404Y-81902200D02*
X127441785Y-81854580D01*
X127441785Y-81854580D02*
X127394166Y-81759342D01*
X127394166Y-81759342D02*
X127394166Y-81521247D01*
X127394166Y-81521247D02*
X127441785Y-81426009D01*
X127441785Y-81426009D02*
X127489404Y-81378390D01*
X127489404Y-81378390D02*
X127584642Y-81330771D01*
X127584642Y-81330771D02*
X127775118Y-81330771D01*
X127775118Y-81330771D02*
X127870356Y-81378390D01*
X127870356Y-81378390D02*
X127917975Y-81426009D01*
X127917975Y-81426009D02*
X127965594Y-81521247D01*
X111010832Y-100952200D02*
X110867975Y-100999819D01*
X110867975Y-100999819D02*
X110629880Y-100999819D01*
X110629880Y-100999819D02*
X110534642Y-100952200D01*
X110534642Y-100952200D02*
X110487023Y-100904580D01*
X110487023Y-100904580D02*
X110439404Y-100809342D01*
X110439404Y-100809342D02*
X110439404Y-100714104D01*
X110439404Y-100714104D02*
X110487023Y-100618866D01*
X110487023Y-100618866D02*
X110534642Y-100571247D01*
X110534642Y-100571247D02*
X110629880Y-100523628D01*
X110629880Y-100523628D02*
X110820356Y-100476009D01*
X110820356Y-100476009D02*
X110915594Y-100428390D01*
X110915594Y-100428390D02*
X110963213Y-100380771D01*
X110963213Y-100380771D02*
X111010832Y-100285533D01*
X111010832Y-100285533D02*
X111010832Y-100190295D01*
X111010832Y-100190295D02*
X110963213Y-100095057D01*
X110963213Y-100095057D02*
X110915594Y-100047438D01*
X110915594Y-100047438D02*
X110820356Y-99999819D01*
X110820356Y-99999819D02*
X110582261Y-99999819D01*
X110582261Y-99999819D02*
X110439404Y-100047438D01*
X110106070Y-99999819D02*
X109867975Y-100999819D01*
X109867975Y-100999819D02*
X109677499Y-100285533D01*
X109677499Y-100285533D02*
X109487023Y-100999819D01*
X109487023Y-100999819D02*
X109248928Y-99999819D01*
X108820356Y-100999819D02*
X108629880Y-100999819D01*
X108629880Y-100999819D02*
X108534642Y-100952200D01*
X108534642Y-100952200D02*
X108487023Y-100904580D01*
X108487023Y-100904580D02*
X108391785Y-100761723D01*
X108391785Y-100761723D02*
X108344166Y-100571247D01*
X108344166Y-100571247D02*
X108344166Y-100190295D01*
X108344166Y-100190295D02*
X108391785Y-100095057D01*
X108391785Y-100095057D02*
X108439404Y-100047438D01*
X108439404Y-100047438D02*
X108534642Y-99999819D01*
X108534642Y-99999819D02*
X108725118Y-99999819D01*
X108725118Y-99999819D02*
X108820356Y-100047438D01*
X108820356Y-100047438D02*
X108867975Y-100095057D01*
X108867975Y-100095057D02*
X108915594Y-100190295D01*
X108915594Y-100190295D02*
X108915594Y-100428390D01*
X108915594Y-100428390D02*
X108867975Y-100523628D01*
X108867975Y-100523628D02*
X108820356Y-100571247D01*
X108820356Y-100571247D02*
X108725118Y-100618866D01*
X108725118Y-100618866D02*
X108534642Y-100618866D01*
X108534642Y-100618866D02*
X108439404Y-100571247D01*
X108439404Y-100571247D02*
X108391785Y-100523628D01*
X108391785Y-100523628D02*
X108344166Y-100428390D01*
X168637023Y-100952200D02*
X168494166Y-100999819D01*
X168494166Y-100999819D02*
X168256071Y-100999819D01*
X168256071Y-100999819D02*
X168160833Y-100952200D01*
X168160833Y-100952200D02*
X168113214Y-100904580D01*
X168113214Y-100904580D02*
X168065595Y-100809342D01*
X168065595Y-100809342D02*
X168065595Y-100714104D01*
X168065595Y-100714104D02*
X168113214Y-100618866D01*
X168113214Y-100618866D02*
X168160833Y-100571247D01*
X168160833Y-100571247D02*
X168256071Y-100523628D01*
X168256071Y-100523628D02*
X168446547Y-100476009D01*
X168446547Y-100476009D02*
X168541785Y-100428390D01*
X168541785Y-100428390D02*
X168589404Y-100380771D01*
X168589404Y-100380771D02*
X168637023Y-100285533D01*
X168637023Y-100285533D02*
X168637023Y-100190295D01*
X168637023Y-100190295D02*
X168589404Y-100095057D01*
X168589404Y-100095057D02*
X168541785Y-100047438D01*
X168541785Y-100047438D02*
X168446547Y-99999819D01*
X168446547Y-99999819D02*
X168208452Y-99999819D01*
X168208452Y-99999819D02*
X168065595Y-100047438D01*
X167732261Y-99999819D02*
X167494166Y-100999819D01*
X167494166Y-100999819D02*
X167303690Y-100285533D01*
X167303690Y-100285533D02*
X167113214Y-100999819D01*
X167113214Y-100999819D02*
X166875119Y-99999819D01*
X165970357Y-100999819D02*
X166541785Y-100999819D01*
X166256071Y-100999819D02*
X166256071Y-99999819D01*
X166256071Y-99999819D02*
X166351309Y-100142676D01*
X166351309Y-100142676D02*
X166446547Y-100237914D01*
X166446547Y-100237914D02*
X166541785Y-100285533D01*
X165589404Y-100095057D02*
X165541785Y-100047438D01*
X165541785Y-100047438D02*
X165446547Y-99999819D01*
X165446547Y-99999819D02*
X165208452Y-99999819D01*
X165208452Y-99999819D02*
X165113214Y-100047438D01*
X165113214Y-100047438D02*
X165065595Y-100095057D01*
X165065595Y-100095057D02*
X165017976Y-100190295D01*
X165017976Y-100190295D02*
X165017976Y-100285533D01*
X165017976Y-100285533D02*
X165065595Y-100428390D01*
X165065595Y-100428390D02*
X165637023Y-100999819D01*
X165637023Y-100999819D02*
X165017976Y-100999819D01*
X149110832Y-62852200D02*
X148967975Y-62899819D01*
X148967975Y-62899819D02*
X148729880Y-62899819D01*
X148729880Y-62899819D02*
X148634642Y-62852200D01*
X148634642Y-62852200D02*
X148587023Y-62804580D01*
X148587023Y-62804580D02*
X148539404Y-62709342D01*
X148539404Y-62709342D02*
X148539404Y-62614104D01*
X148539404Y-62614104D02*
X148587023Y-62518866D01*
X148587023Y-62518866D02*
X148634642Y-62471247D01*
X148634642Y-62471247D02*
X148729880Y-62423628D01*
X148729880Y-62423628D02*
X148920356Y-62376009D01*
X148920356Y-62376009D02*
X149015594Y-62328390D01*
X149015594Y-62328390D02*
X149063213Y-62280771D01*
X149063213Y-62280771D02*
X149110832Y-62185533D01*
X149110832Y-62185533D02*
X149110832Y-62090295D01*
X149110832Y-62090295D02*
X149063213Y-61995057D01*
X149063213Y-61995057D02*
X149015594Y-61947438D01*
X149015594Y-61947438D02*
X148920356Y-61899819D01*
X148920356Y-61899819D02*
X148682261Y-61899819D01*
X148682261Y-61899819D02*
X148539404Y-61947438D01*
X148206070Y-61899819D02*
X147967975Y-62899819D01*
X147967975Y-62899819D02*
X147777499Y-62185533D01*
X147777499Y-62185533D02*
X147587023Y-62899819D01*
X147587023Y-62899819D02*
X147348928Y-61899819D01*
X147063213Y-61899819D02*
X146444166Y-61899819D01*
X146444166Y-61899819D02*
X146777499Y-62280771D01*
X146777499Y-62280771D02*
X146634642Y-62280771D01*
X146634642Y-62280771D02*
X146539404Y-62328390D01*
X146539404Y-62328390D02*
X146491785Y-62376009D01*
X146491785Y-62376009D02*
X146444166Y-62471247D01*
X146444166Y-62471247D02*
X146444166Y-62709342D01*
X146444166Y-62709342D02*
X146491785Y-62804580D01*
X146491785Y-62804580D02*
X146539404Y-62852200D01*
X146539404Y-62852200D02*
X146634642Y-62899819D01*
X146634642Y-62899819D02*
X146920356Y-62899819D01*
X146920356Y-62899819D02*
X147015594Y-62852200D01*
X147015594Y-62852200D02*
X147063213Y-62804580D01*
X168160832Y-62852200D02*
X168017975Y-62899819D01*
X168017975Y-62899819D02*
X167779880Y-62899819D01*
X167779880Y-62899819D02*
X167684642Y-62852200D01*
X167684642Y-62852200D02*
X167637023Y-62804580D01*
X167637023Y-62804580D02*
X167589404Y-62709342D01*
X167589404Y-62709342D02*
X167589404Y-62614104D01*
X167589404Y-62614104D02*
X167637023Y-62518866D01*
X167637023Y-62518866D02*
X167684642Y-62471247D01*
X167684642Y-62471247D02*
X167779880Y-62423628D01*
X167779880Y-62423628D02*
X167970356Y-62376009D01*
X167970356Y-62376009D02*
X168065594Y-62328390D01*
X168065594Y-62328390D02*
X168113213Y-62280771D01*
X168113213Y-62280771D02*
X168160832Y-62185533D01*
X168160832Y-62185533D02*
X168160832Y-62090295D01*
X168160832Y-62090295D02*
X168113213Y-61995057D01*
X168113213Y-61995057D02*
X168065594Y-61947438D01*
X168065594Y-61947438D02*
X167970356Y-61899819D01*
X167970356Y-61899819D02*
X167732261Y-61899819D01*
X167732261Y-61899819D02*
X167589404Y-61947438D01*
X167256070Y-61899819D02*
X167017975Y-62899819D01*
X167017975Y-62899819D02*
X166827499Y-62185533D01*
X166827499Y-62185533D02*
X166637023Y-62899819D01*
X166637023Y-62899819D02*
X166398928Y-61899819D01*
X165589404Y-62233152D02*
X165589404Y-62899819D01*
X165827499Y-61852200D02*
X166065594Y-62566485D01*
X166065594Y-62566485D02*
X165446547Y-62566485D01*
X124612819Y-93180952D02*
X124612819Y-92704762D01*
X124612819Y-92704762D02*
X123612819Y-92704762D01*
X124089009Y-93514286D02*
X124089009Y-93847619D01*
X124612819Y-93990476D02*
X124612819Y-93514286D01*
X124612819Y-93514286D02*
X123612819Y-93514286D01*
X123612819Y-93514286D02*
X123612819Y-93990476D01*
X124612819Y-94419048D02*
X123612819Y-94419048D01*
X123612819Y-94419048D02*
X123612819Y-94657143D01*
X123612819Y-94657143D02*
X123660438Y-94800000D01*
X123660438Y-94800000D02*
X123755676Y-94895238D01*
X123755676Y-94895238D02*
X123850914Y-94942857D01*
X123850914Y-94942857D02*
X124041390Y-94990476D01*
X124041390Y-94990476D02*
X124184247Y-94990476D01*
X124184247Y-94990476D02*
X124374723Y-94942857D01*
X124374723Y-94942857D02*
X124469961Y-94895238D01*
X124469961Y-94895238D02*
X124565200Y-94800000D01*
X124565200Y-94800000D02*
X124612819Y-94657143D01*
X124612819Y-94657143D02*
X124612819Y-94419048D01*
X123612819Y-95847619D02*
X123612819Y-95657143D01*
X123612819Y-95657143D02*
X123660438Y-95561905D01*
X123660438Y-95561905D02*
X123708057Y-95514286D01*
X123708057Y-95514286D02*
X123850914Y-95419048D01*
X123850914Y-95419048D02*
X124041390Y-95371429D01*
X124041390Y-95371429D02*
X124422342Y-95371429D01*
X124422342Y-95371429D02*
X124517580Y-95419048D01*
X124517580Y-95419048D02*
X124565200Y-95466667D01*
X124565200Y-95466667D02*
X124612819Y-95561905D01*
X124612819Y-95561905D02*
X124612819Y-95752381D01*
X124612819Y-95752381D02*
X124565200Y-95847619D01*
X124565200Y-95847619D02*
X124517580Y-95895238D01*
X124517580Y-95895238D02*
X124422342Y-95942857D01*
X124422342Y-95942857D02*
X124184247Y-95942857D01*
X124184247Y-95942857D02*
X124089009Y-95895238D01*
X124089009Y-95895238D02*
X124041390Y-95847619D01*
X124041390Y-95847619D02*
X123993771Y-95752381D01*
X123993771Y-95752381D02*
X123993771Y-95561905D01*
X123993771Y-95561905D02*
X124041390Y-95466667D01*
X124041390Y-95466667D02*
X124089009Y-95419048D01*
X124089009Y-95419048D02*
X124184247Y-95371429D01*
X188627594Y-73524819D02*
X188627594Y-72524819D01*
X188627594Y-72524819D02*
X188389499Y-72524819D01*
X188389499Y-72524819D02*
X188246642Y-72572438D01*
X188246642Y-72572438D02*
X188151404Y-72667676D01*
X188151404Y-72667676D02*
X188103785Y-72762914D01*
X188103785Y-72762914D02*
X188056166Y-72953390D01*
X188056166Y-72953390D02*
X188056166Y-73096247D01*
X188056166Y-73096247D02*
X188103785Y-73286723D01*
X188103785Y-73286723D02*
X188151404Y-73381961D01*
X188151404Y-73381961D02*
X188246642Y-73477200D01*
X188246642Y-73477200D02*
X188389499Y-73524819D01*
X188389499Y-73524819D02*
X188627594Y-73524819D01*
X187484737Y-72953390D02*
X187579975Y-72905771D01*
X187579975Y-72905771D02*
X187627594Y-72858152D01*
X187627594Y-72858152D02*
X187675213Y-72762914D01*
X187675213Y-72762914D02*
X187675213Y-72715295D01*
X187675213Y-72715295D02*
X187627594Y-72620057D01*
X187627594Y-72620057D02*
X187579975Y-72572438D01*
X187579975Y-72572438D02*
X187484737Y-72524819D01*
X187484737Y-72524819D02*
X187294261Y-72524819D01*
X187294261Y-72524819D02*
X187199023Y-72572438D01*
X187199023Y-72572438D02*
X187151404Y-72620057D01*
X187151404Y-72620057D02*
X187103785Y-72715295D01*
X187103785Y-72715295D02*
X187103785Y-72762914D01*
X187103785Y-72762914D02*
X187151404Y-72858152D01*
X187151404Y-72858152D02*
X187199023Y-72905771D01*
X187199023Y-72905771D02*
X187294261Y-72953390D01*
X187294261Y-72953390D02*
X187484737Y-72953390D01*
X187484737Y-72953390D02*
X187579975Y-73001009D01*
X187579975Y-73001009D02*
X187627594Y-73048628D01*
X187627594Y-73048628D02*
X187675213Y-73143866D01*
X187675213Y-73143866D02*
X187675213Y-73334342D01*
X187675213Y-73334342D02*
X187627594Y-73429580D01*
X187627594Y-73429580D02*
X187579975Y-73477200D01*
X187579975Y-73477200D02*
X187484737Y-73524819D01*
X187484737Y-73524819D02*
X187294261Y-73524819D01*
X187294261Y-73524819D02*
X187199023Y-73477200D01*
X187199023Y-73477200D02*
X187151404Y-73429580D01*
X187151404Y-73429580D02*
X187103785Y-73334342D01*
X187103785Y-73334342D02*
X187103785Y-73143866D01*
X187103785Y-73143866D02*
X187151404Y-73048628D01*
X187151404Y-73048628D02*
X187199023Y-73001009D01*
X187199023Y-73001009D02*
X187294261Y-72953390D01*
X105562819Y-112230952D02*
X105562819Y-111754762D01*
X105562819Y-111754762D02*
X104562819Y-111754762D01*
X105039009Y-112564286D02*
X105039009Y-112897619D01*
X105562819Y-113040476D02*
X105562819Y-112564286D01*
X105562819Y-112564286D02*
X104562819Y-112564286D01*
X104562819Y-112564286D02*
X104562819Y-113040476D01*
X105562819Y-113469048D02*
X104562819Y-113469048D01*
X104562819Y-113469048D02*
X104562819Y-113707143D01*
X104562819Y-113707143D02*
X104610438Y-113850000D01*
X104610438Y-113850000D02*
X104705676Y-113945238D01*
X104705676Y-113945238D02*
X104800914Y-113992857D01*
X104800914Y-113992857D02*
X104991390Y-114040476D01*
X104991390Y-114040476D02*
X105134247Y-114040476D01*
X105134247Y-114040476D02*
X105324723Y-113992857D01*
X105324723Y-113992857D02*
X105419961Y-113945238D01*
X105419961Y-113945238D02*
X105515200Y-113850000D01*
X105515200Y-113850000D02*
X105562819Y-113707143D01*
X105562819Y-113707143D02*
X105562819Y-113469048D01*
X105562819Y-114516667D02*
X105562819Y-114707143D01*
X105562819Y-114707143D02*
X105515200Y-114802381D01*
X105515200Y-114802381D02*
X105467580Y-114850000D01*
X105467580Y-114850000D02*
X105324723Y-114945238D01*
X105324723Y-114945238D02*
X105134247Y-114992857D01*
X105134247Y-114992857D02*
X104753295Y-114992857D01*
X104753295Y-114992857D02*
X104658057Y-114945238D01*
X104658057Y-114945238D02*
X104610438Y-114897619D01*
X104610438Y-114897619D02*
X104562819Y-114802381D01*
X104562819Y-114802381D02*
X104562819Y-114611905D01*
X104562819Y-114611905D02*
X104610438Y-114516667D01*
X104610438Y-114516667D02*
X104658057Y-114469048D01*
X104658057Y-114469048D02*
X104753295Y-114421429D01*
X104753295Y-114421429D02*
X104991390Y-114421429D01*
X104991390Y-114421429D02*
X105086628Y-114469048D01*
X105086628Y-114469048D02*
X105134247Y-114516667D01*
X105134247Y-114516667D02*
X105181866Y-114611905D01*
X105181866Y-114611905D02*
X105181866Y-114802381D01*
X105181866Y-114802381D02*
X105134247Y-114897619D01*
X105134247Y-114897619D02*
X105086628Y-114945238D01*
X105086628Y-114945238D02*
X104991390Y-114992857D01*
X193127594Y-78774819D02*
X193127594Y-77774819D01*
X193127594Y-77774819D02*
X192889499Y-77774819D01*
X192889499Y-77774819D02*
X192746642Y-77822438D01*
X192746642Y-77822438D02*
X192651404Y-77917676D01*
X192651404Y-77917676D02*
X192603785Y-78012914D01*
X192603785Y-78012914D02*
X192556166Y-78203390D01*
X192556166Y-78203390D02*
X192556166Y-78346247D01*
X192556166Y-78346247D02*
X192603785Y-78536723D01*
X192603785Y-78536723D02*
X192651404Y-78631961D01*
X192651404Y-78631961D02*
X192746642Y-78727200D01*
X192746642Y-78727200D02*
X192889499Y-78774819D01*
X192889499Y-78774819D02*
X193127594Y-78774819D01*
X192222832Y-77774819D02*
X191603785Y-77774819D01*
X191603785Y-77774819D02*
X191937118Y-78155771D01*
X191937118Y-78155771D02*
X191794261Y-78155771D01*
X191794261Y-78155771D02*
X191699023Y-78203390D01*
X191699023Y-78203390D02*
X191651404Y-78251009D01*
X191651404Y-78251009D02*
X191603785Y-78346247D01*
X191603785Y-78346247D02*
X191603785Y-78584342D01*
X191603785Y-78584342D02*
X191651404Y-78679580D01*
X191651404Y-78679580D02*
X191699023Y-78727200D01*
X191699023Y-78727200D02*
X191794261Y-78774819D01*
X191794261Y-78774819D02*
X192079975Y-78774819D01*
X192079975Y-78774819D02*
X192175213Y-78727200D01*
X192175213Y-78727200D02*
X192222832Y-78679580D01*
X193127594Y-89274819D02*
X193127594Y-88274819D01*
X193127594Y-88274819D02*
X192889499Y-88274819D01*
X192889499Y-88274819D02*
X192746642Y-88322438D01*
X192746642Y-88322438D02*
X192651404Y-88417676D01*
X192651404Y-88417676D02*
X192603785Y-88512914D01*
X192603785Y-88512914D02*
X192556166Y-88703390D01*
X192556166Y-88703390D02*
X192556166Y-88846247D01*
X192556166Y-88846247D02*
X192603785Y-89036723D01*
X192603785Y-89036723D02*
X192651404Y-89131961D01*
X192651404Y-89131961D02*
X192746642Y-89227200D01*
X192746642Y-89227200D02*
X192889499Y-89274819D01*
X192889499Y-89274819D02*
X193127594Y-89274819D01*
X191699023Y-88274819D02*
X191889499Y-88274819D01*
X191889499Y-88274819D02*
X191984737Y-88322438D01*
X191984737Y-88322438D02*
X192032356Y-88370057D01*
X192032356Y-88370057D02*
X192127594Y-88512914D01*
X192127594Y-88512914D02*
X192175213Y-88703390D01*
X192175213Y-88703390D02*
X192175213Y-89084342D01*
X192175213Y-89084342D02*
X192127594Y-89179580D01*
X192127594Y-89179580D02*
X192079975Y-89227200D01*
X192079975Y-89227200D02*
X191984737Y-89274819D01*
X191984737Y-89274819D02*
X191794261Y-89274819D01*
X191794261Y-89274819D02*
X191699023Y-89227200D01*
X191699023Y-89227200D02*
X191651404Y-89179580D01*
X191651404Y-89179580D02*
X191603785Y-89084342D01*
X191603785Y-89084342D02*
X191603785Y-88846247D01*
X191603785Y-88846247D02*
X191651404Y-88751009D01*
X191651404Y-88751009D02*
X191699023Y-88703390D01*
X191699023Y-88703390D02*
X191794261Y-88655771D01*
X191794261Y-88655771D02*
X191984737Y-88655771D01*
X191984737Y-88655771D02*
X192079975Y-88703390D01*
X192079975Y-88703390D02*
X192127594Y-88751009D01*
X192127594Y-88751009D02*
X192175213Y-88846247D01*
X105562819Y-74130952D02*
X105562819Y-73654762D01*
X105562819Y-73654762D02*
X104562819Y-73654762D01*
X105039009Y-74464286D02*
X105039009Y-74797619D01*
X105562819Y-74940476D02*
X105562819Y-74464286D01*
X105562819Y-74464286D02*
X104562819Y-74464286D01*
X104562819Y-74464286D02*
X104562819Y-74940476D01*
X105562819Y-75369048D02*
X104562819Y-75369048D01*
X104562819Y-75369048D02*
X104562819Y-75607143D01*
X104562819Y-75607143D02*
X104610438Y-75750000D01*
X104610438Y-75750000D02*
X104705676Y-75845238D01*
X104705676Y-75845238D02*
X104800914Y-75892857D01*
X104800914Y-75892857D02*
X104991390Y-75940476D01*
X104991390Y-75940476D02*
X105134247Y-75940476D01*
X105134247Y-75940476D02*
X105324723Y-75892857D01*
X105324723Y-75892857D02*
X105419961Y-75845238D01*
X105419961Y-75845238D02*
X105515200Y-75750000D01*
X105515200Y-75750000D02*
X105562819Y-75607143D01*
X105562819Y-75607143D02*
X105562819Y-75369048D01*
X105562819Y-76892857D02*
X105562819Y-76321429D01*
X105562819Y-76607143D02*
X104562819Y-76607143D01*
X104562819Y-76607143D02*
X104705676Y-76511905D01*
X104705676Y-76511905D02*
X104800914Y-76416667D01*
X104800914Y-76416667D02*
X104848533Y-76321429D01*
X189103785Y-91024819D02*
X189103785Y-90024819D01*
X189103785Y-90024819D02*
X188865690Y-90024819D01*
X188865690Y-90024819D02*
X188722833Y-90072438D01*
X188722833Y-90072438D02*
X188627595Y-90167676D01*
X188627595Y-90167676D02*
X188579976Y-90262914D01*
X188579976Y-90262914D02*
X188532357Y-90453390D01*
X188532357Y-90453390D02*
X188532357Y-90596247D01*
X188532357Y-90596247D02*
X188579976Y-90786723D01*
X188579976Y-90786723D02*
X188627595Y-90881961D01*
X188627595Y-90881961D02*
X188722833Y-90977200D01*
X188722833Y-90977200D02*
X188865690Y-91024819D01*
X188865690Y-91024819D02*
X189103785Y-91024819D01*
X187579976Y-91024819D02*
X188151404Y-91024819D01*
X187865690Y-91024819D02*
X187865690Y-90024819D01*
X187865690Y-90024819D02*
X187960928Y-90167676D01*
X187960928Y-90167676D02*
X188056166Y-90262914D01*
X188056166Y-90262914D02*
X188151404Y-90310533D01*
X187246642Y-90024819D02*
X186627595Y-90024819D01*
X186627595Y-90024819D02*
X186960928Y-90405771D01*
X186960928Y-90405771D02*
X186818071Y-90405771D01*
X186818071Y-90405771D02*
X186722833Y-90453390D01*
X186722833Y-90453390D02*
X186675214Y-90501009D01*
X186675214Y-90501009D02*
X186627595Y-90596247D01*
X186627595Y-90596247D02*
X186627595Y-90834342D01*
X186627595Y-90834342D02*
X186675214Y-90929580D01*
X186675214Y-90929580D02*
X186722833Y-90977200D01*
X186722833Y-90977200D02*
X186818071Y-91024819D01*
X186818071Y-91024819D02*
X187103785Y-91024819D01*
X187103785Y-91024819D02*
X187199023Y-90977200D01*
X187199023Y-90977200D02*
X187246642Y-90929580D01*
X189103785Y-84024819D02*
X189103785Y-83024819D01*
X189103785Y-83024819D02*
X188865690Y-83024819D01*
X188865690Y-83024819D02*
X188722833Y-83072438D01*
X188722833Y-83072438D02*
X188627595Y-83167676D01*
X188627595Y-83167676D02*
X188579976Y-83262914D01*
X188579976Y-83262914D02*
X188532357Y-83453390D01*
X188532357Y-83453390D02*
X188532357Y-83596247D01*
X188532357Y-83596247D02*
X188579976Y-83786723D01*
X188579976Y-83786723D02*
X188627595Y-83881961D01*
X188627595Y-83881961D02*
X188722833Y-83977200D01*
X188722833Y-83977200D02*
X188865690Y-84024819D01*
X188865690Y-84024819D02*
X189103785Y-84024819D01*
X187579976Y-84024819D02*
X188151404Y-84024819D01*
X187865690Y-84024819D02*
X187865690Y-83024819D01*
X187865690Y-83024819D02*
X187960928Y-83167676D01*
X187960928Y-83167676D02*
X188056166Y-83262914D01*
X188056166Y-83262914D02*
X188151404Y-83310533D01*
X186627595Y-84024819D02*
X187199023Y-84024819D01*
X186913309Y-84024819D02*
X186913309Y-83024819D01*
X186913309Y-83024819D02*
X187008547Y-83167676D01*
X187008547Y-83167676D02*
X187103785Y-83262914D01*
X187103785Y-83262914D02*
X187199023Y-83310533D01*
X193127594Y-71624819D02*
X193127594Y-70624819D01*
X193127594Y-70624819D02*
X192889499Y-70624819D01*
X192889499Y-70624819D02*
X192746642Y-70672438D01*
X192746642Y-70672438D02*
X192651404Y-70767676D01*
X192651404Y-70767676D02*
X192603785Y-70862914D01*
X192603785Y-70862914D02*
X192556166Y-71053390D01*
X192556166Y-71053390D02*
X192556166Y-71196247D01*
X192556166Y-71196247D02*
X192603785Y-71386723D01*
X192603785Y-71386723D02*
X192651404Y-71481961D01*
X192651404Y-71481961D02*
X192746642Y-71577200D01*
X192746642Y-71577200D02*
X192889499Y-71624819D01*
X192889499Y-71624819D02*
X193127594Y-71624819D01*
X191603785Y-71624819D02*
X192175213Y-71624819D01*
X191889499Y-71624819D02*
X191889499Y-70624819D01*
X191889499Y-70624819D02*
X191984737Y-70767676D01*
X191984737Y-70767676D02*
X192079975Y-70862914D01*
X192079975Y-70862914D02*
X192175213Y-70910533D01*
X143662819Y-74130952D02*
X143662819Y-73654762D01*
X143662819Y-73654762D02*
X142662819Y-73654762D01*
X143139009Y-74464286D02*
X143139009Y-74797619D01*
X143662819Y-74940476D02*
X143662819Y-74464286D01*
X143662819Y-74464286D02*
X142662819Y-74464286D01*
X142662819Y-74464286D02*
X142662819Y-74940476D01*
X143662819Y-75369048D02*
X142662819Y-75369048D01*
X142662819Y-75369048D02*
X142662819Y-75607143D01*
X142662819Y-75607143D02*
X142710438Y-75750000D01*
X142710438Y-75750000D02*
X142805676Y-75845238D01*
X142805676Y-75845238D02*
X142900914Y-75892857D01*
X142900914Y-75892857D02*
X143091390Y-75940476D01*
X143091390Y-75940476D02*
X143234247Y-75940476D01*
X143234247Y-75940476D02*
X143424723Y-75892857D01*
X143424723Y-75892857D02*
X143519961Y-75845238D01*
X143519961Y-75845238D02*
X143615200Y-75750000D01*
X143615200Y-75750000D02*
X143662819Y-75607143D01*
X143662819Y-75607143D02*
X143662819Y-75369048D01*
X142662819Y-76273810D02*
X142662819Y-76892857D01*
X142662819Y-76892857D02*
X143043771Y-76559524D01*
X143043771Y-76559524D02*
X143043771Y-76702381D01*
X143043771Y-76702381D02*
X143091390Y-76797619D01*
X143091390Y-76797619D02*
X143139009Y-76845238D01*
X143139009Y-76845238D02*
X143234247Y-76892857D01*
X143234247Y-76892857D02*
X143472342Y-76892857D01*
X143472342Y-76892857D02*
X143567580Y-76845238D01*
X143567580Y-76845238D02*
X143615200Y-76797619D01*
X143615200Y-76797619D02*
X143662819Y-76702381D01*
X143662819Y-76702381D02*
X143662819Y-76416667D01*
X143662819Y-76416667D02*
X143615200Y-76321429D01*
X143615200Y-76321429D02*
X143567580Y-76273810D01*
X189103785Y-80524819D02*
X189103785Y-79524819D01*
X189103785Y-79524819D02*
X188865690Y-79524819D01*
X188865690Y-79524819D02*
X188722833Y-79572438D01*
X188722833Y-79572438D02*
X188627595Y-79667676D01*
X188627595Y-79667676D02*
X188579976Y-79762914D01*
X188579976Y-79762914D02*
X188532357Y-79953390D01*
X188532357Y-79953390D02*
X188532357Y-80096247D01*
X188532357Y-80096247D02*
X188579976Y-80286723D01*
X188579976Y-80286723D02*
X188627595Y-80381961D01*
X188627595Y-80381961D02*
X188722833Y-80477200D01*
X188722833Y-80477200D02*
X188865690Y-80524819D01*
X188865690Y-80524819D02*
X189103785Y-80524819D01*
X187579976Y-80524819D02*
X188151404Y-80524819D01*
X187865690Y-80524819D02*
X187865690Y-79524819D01*
X187865690Y-79524819D02*
X187960928Y-79667676D01*
X187960928Y-79667676D02*
X188056166Y-79762914D01*
X188056166Y-79762914D02*
X188151404Y-79810533D01*
X186960928Y-79524819D02*
X186865690Y-79524819D01*
X186865690Y-79524819D02*
X186770452Y-79572438D01*
X186770452Y-79572438D02*
X186722833Y-79620057D01*
X186722833Y-79620057D02*
X186675214Y-79715295D01*
X186675214Y-79715295D02*
X186627595Y-79905771D01*
X186627595Y-79905771D02*
X186627595Y-80143866D01*
X186627595Y-80143866D02*
X186675214Y-80334342D01*
X186675214Y-80334342D02*
X186722833Y-80429580D01*
X186722833Y-80429580D02*
X186770452Y-80477200D01*
X186770452Y-80477200D02*
X186865690Y-80524819D01*
X186865690Y-80524819D02*
X186960928Y-80524819D01*
X186960928Y-80524819D02*
X187056166Y-80477200D01*
X187056166Y-80477200D02*
X187103785Y-80429580D01*
X187103785Y-80429580D02*
X187151404Y-80334342D01*
X187151404Y-80334342D02*
X187199023Y-80143866D01*
X187199023Y-80143866D02*
X187199023Y-79905771D01*
X187199023Y-79905771D02*
X187151404Y-79715295D01*
X187151404Y-79715295D02*
X187103785Y-79620057D01*
X187103785Y-79620057D02*
X187056166Y-79572438D01*
X187056166Y-79572438D02*
X186960928Y-79524819D01*
X162702819Y-74130952D02*
X162702819Y-73654762D01*
X162702819Y-73654762D02*
X161702819Y-73654762D01*
X162179009Y-74464286D02*
X162179009Y-74797619D01*
X162702819Y-74940476D02*
X162702819Y-74464286D01*
X162702819Y-74464286D02*
X161702819Y-74464286D01*
X161702819Y-74464286D02*
X161702819Y-74940476D01*
X162702819Y-75369048D02*
X161702819Y-75369048D01*
X161702819Y-75369048D02*
X161702819Y-75607143D01*
X161702819Y-75607143D02*
X161750438Y-75750000D01*
X161750438Y-75750000D02*
X161845676Y-75845238D01*
X161845676Y-75845238D02*
X161940914Y-75892857D01*
X161940914Y-75892857D02*
X162131390Y-75940476D01*
X162131390Y-75940476D02*
X162274247Y-75940476D01*
X162274247Y-75940476D02*
X162464723Y-75892857D01*
X162464723Y-75892857D02*
X162559961Y-75845238D01*
X162559961Y-75845238D02*
X162655200Y-75750000D01*
X162655200Y-75750000D02*
X162702819Y-75607143D01*
X162702819Y-75607143D02*
X162702819Y-75369048D01*
X162036152Y-76797619D02*
X162702819Y-76797619D01*
X161655200Y-76559524D02*
X162369485Y-76321429D01*
X162369485Y-76321429D02*
X162369485Y-76940476D01*
X105562819Y-93180952D02*
X105562819Y-92704762D01*
X105562819Y-92704762D02*
X104562819Y-92704762D01*
X105039009Y-93514286D02*
X105039009Y-93847619D01*
X105562819Y-93990476D02*
X105562819Y-93514286D01*
X105562819Y-93514286D02*
X104562819Y-93514286D01*
X104562819Y-93514286D02*
X104562819Y-93990476D01*
X105562819Y-94419048D02*
X104562819Y-94419048D01*
X104562819Y-94419048D02*
X104562819Y-94657143D01*
X104562819Y-94657143D02*
X104610438Y-94800000D01*
X104610438Y-94800000D02*
X104705676Y-94895238D01*
X104705676Y-94895238D02*
X104800914Y-94942857D01*
X104800914Y-94942857D02*
X104991390Y-94990476D01*
X104991390Y-94990476D02*
X105134247Y-94990476D01*
X105134247Y-94990476D02*
X105324723Y-94942857D01*
X105324723Y-94942857D02*
X105419961Y-94895238D01*
X105419961Y-94895238D02*
X105515200Y-94800000D01*
X105515200Y-94800000D02*
X105562819Y-94657143D01*
X105562819Y-94657143D02*
X105562819Y-94419048D01*
X104562819Y-95895238D02*
X104562819Y-95419048D01*
X104562819Y-95419048D02*
X105039009Y-95371429D01*
X105039009Y-95371429D02*
X104991390Y-95419048D01*
X104991390Y-95419048D02*
X104943771Y-95514286D01*
X104943771Y-95514286D02*
X104943771Y-95752381D01*
X104943771Y-95752381D02*
X104991390Y-95847619D01*
X104991390Y-95847619D02*
X105039009Y-95895238D01*
X105039009Y-95895238D02*
X105134247Y-95942857D01*
X105134247Y-95942857D02*
X105372342Y-95942857D01*
X105372342Y-95942857D02*
X105467580Y-95895238D01*
X105467580Y-95895238D02*
X105515200Y-95847619D01*
X105515200Y-95847619D02*
X105562819Y-95752381D01*
X105562819Y-95752381D02*
X105562819Y-95514286D01*
X105562819Y-95514286D02*
X105515200Y-95419048D01*
X105515200Y-95419048D02*
X105467580Y-95371429D01*
X162712819Y-93180952D02*
X162712819Y-92704762D01*
X162712819Y-92704762D02*
X161712819Y-92704762D01*
X162189009Y-93514286D02*
X162189009Y-93847619D01*
X162712819Y-93990476D02*
X162712819Y-93514286D01*
X162712819Y-93514286D02*
X161712819Y-93514286D01*
X161712819Y-93514286D02*
X161712819Y-93990476D01*
X162712819Y-94419048D02*
X161712819Y-94419048D01*
X161712819Y-94419048D02*
X161712819Y-94657143D01*
X161712819Y-94657143D02*
X161760438Y-94800000D01*
X161760438Y-94800000D02*
X161855676Y-94895238D01*
X161855676Y-94895238D02*
X161950914Y-94942857D01*
X161950914Y-94942857D02*
X162141390Y-94990476D01*
X162141390Y-94990476D02*
X162284247Y-94990476D01*
X162284247Y-94990476D02*
X162474723Y-94942857D01*
X162474723Y-94942857D02*
X162569961Y-94895238D01*
X162569961Y-94895238D02*
X162665200Y-94800000D01*
X162665200Y-94800000D02*
X162712819Y-94657143D01*
X162712819Y-94657143D02*
X162712819Y-94419048D01*
X162141390Y-95561905D02*
X162093771Y-95466667D01*
X162093771Y-95466667D02*
X162046152Y-95419048D01*
X162046152Y-95419048D02*
X161950914Y-95371429D01*
X161950914Y-95371429D02*
X161903295Y-95371429D01*
X161903295Y-95371429D02*
X161808057Y-95419048D01*
X161808057Y-95419048D02*
X161760438Y-95466667D01*
X161760438Y-95466667D02*
X161712819Y-95561905D01*
X161712819Y-95561905D02*
X161712819Y-95752381D01*
X161712819Y-95752381D02*
X161760438Y-95847619D01*
X161760438Y-95847619D02*
X161808057Y-95895238D01*
X161808057Y-95895238D02*
X161903295Y-95942857D01*
X161903295Y-95942857D02*
X161950914Y-95942857D01*
X161950914Y-95942857D02*
X162046152Y-95895238D01*
X162046152Y-95895238D02*
X162093771Y-95847619D01*
X162093771Y-95847619D02*
X162141390Y-95752381D01*
X162141390Y-95752381D02*
X162141390Y-95561905D01*
X162141390Y-95561905D02*
X162189009Y-95466667D01*
X162189009Y-95466667D02*
X162236628Y-95419048D01*
X162236628Y-95419048D02*
X162331866Y-95371429D01*
X162331866Y-95371429D02*
X162522342Y-95371429D01*
X162522342Y-95371429D02*
X162617580Y-95419048D01*
X162617580Y-95419048D02*
X162665200Y-95466667D01*
X162665200Y-95466667D02*
X162712819Y-95561905D01*
X162712819Y-95561905D02*
X162712819Y-95752381D01*
X162712819Y-95752381D02*
X162665200Y-95847619D01*
X162665200Y-95847619D02*
X162617580Y-95895238D01*
X162617580Y-95895238D02*
X162522342Y-95942857D01*
X162522342Y-95942857D02*
X162331866Y-95942857D01*
X162331866Y-95942857D02*
X162236628Y-95895238D01*
X162236628Y-95895238D02*
X162189009Y-95847619D01*
X162189009Y-95847619D02*
X162141390Y-95752381D01*
X193127594Y-85774819D02*
X193127594Y-84774819D01*
X193127594Y-84774819D02*
X192889499Y-84774819D01*
X192889499Y-84774819D02*
X192746642Y-84822438D01*
X192746642Y-84822438D02*
X192651404Y-84917676D01*
X192651404Y-84917676D02*
X192603785Y-85012914D01*
X192603785Y-85012914D02*
X192556166Y-85203390D01*
X192556166Y-85203390D02*
X192556166Y-85346247D01*
X192556166Y-85346247D02*
X192603785Y-85536723D01*
X192603785Y-85536723D02*
X192651404Y-85631961D01*
X192651404Y-85631961D02*
X192746642Y-85727200D01*
X192746642Y-85727200D02*
X192889499Y-85774819D01*
X192889499Y-85774819D02*
X193127594Y-85774819D01*
X191651404Y-84774819D02*
X192127594Y-84774819D01*
X192127594Y-84774819D02*
X192175213Y-85251009D01*
X192175213Y-85251009D02*
X192127594Y-85203390D01*
X192127594Y-85203390D02*
X192032356Y-85155771D01*
X192032356Y-85155771D02*
X191794261Y-85155771D01*
X191794261Y-85155771D02*
X191699023Y-85203390D01*
X191699023Y-85203390D02*
X191651404Y-85251009D01*
X191651404Y-85251009D02*
X191603785Y-85346247D01*
X191603785Y-85346247D02*
X191603785Y-85584342D01*
X191603785Y-85584342D02*
X191651404Y-85679580D01*
X191651404Y-85679580D02*
X191699023Y-85727200D01*
X191699023Y-85727200D02*
X191794261Y-85774819D01*
X191794261Y-85774819D02*
X192032356Y-85774819D01*
X192032356Y-85774819D02*
X192127594Y-85727200D01*
X192127594Y-85727200D02*
X192175213Y-85679580D01*
X188627594Y-77024819D02*
X188627594Y-76024819D01*
X188627594Y-76024819D02*
X188389499Y-76024819D01*
X188389499Y-76024819D02*
X188246642Y-76072438D01*
X188246642Y-76072438D02*
X188151404Y-76167676D01*
X188151404Y-76167676D02*
X188103785Y-76262914D01*
X188103785Y-76262914D02*
X188056166Y-76453390D01*
X188056166Y-76453390D02*
X188056166Y-76596247D01*
X188056166Y-76596247D02*
X188103785Y-76786723D01*
X188103785Y-76786723D02*
X188151404Y-76881961D01*
X188151404Y-76881961D02*
X188246642Y-76977200D01*
X188246642Y-76977200D02*
X188389499Y-77024819D01*
X188389499Y-77024819D02*
X188627594Y-77024819D01*
X187579975Y-77024819D02*
X187389499Y-77024819D01*
X187389499Y-77024819D02*
X187294261Y-76977200D01*
X187294261Y-76977200D02*
X187246642Y-76929580D01*
X187246642Y-76929580D02*
X187151404Y-76786723D01*
X187151404Y-76786723D02*
X187103785Y-76596247D01*
X187103785Y-76596247D02*
X187103785Y-76215295D01*
X187103785Y-76215295D02*
X187151404Y-76120057D01*
X187151404Y-76120057D02*
X187199023Y-76072438D01*
X187199023Y-76072438D02*
X187294261Y-76024819D01*
X187294261Y-76024819D02*
X187484737Y-76024819D01*
X187484737Y-76024819D02*
X187579975Y-76072438D01*
X187579975Y-76072438D02*
X187627594Y-76120057D01*
X187627594Y-76120057D02*
X187675213Y-76215295D01*
X187675213Y-76215295D02*
X187675213Y-76453390D01*
X187675213Y-76453390D02*
X187627594Y-76548628D01*
X187627594Y-76548628D02*
X187579975Y-76596247D01*
X187579975Y-76596247D02*
X187484737Y-76643866D01*
X187484737Y-76643866D02*
X187294261Y-76643866D01*
X187294261Y-76643866D02*
X187199023Y-76596247D01*
X187199023Y-76596247D02*
X187151404Y-76548628D01*
X187151404Y-76548628D02*
X187103785Y-76453390D01*
X143662819Y-93110952D02*
X143662819Y-92634762D01*
X143662819Y-92634762D02*
X142662819Y-92634762D01*
X143139009Y-93444286D02*
X143139009Y-93777619D01*
X143662819Y-93920476D02*
X143662819Y-93444286D01*
X143662819Y-93444286D02*
X142662819Y-93444286D01*
X142662819Y-93444286D02*
X142662819Y-93920476D01*
X143662819Y-94349048D02*
X142662819Y-94349048D01*
X142662819Y-94349048D02*
X142662819Y-94587143D01*
X142662819Y-94587143D02*
X142710438Y-94730000D01*
X142710438Y-94730000D02*
X142805676Y-94825238D01*
X142805676Y-94825238D02*
X142900914Y-94872857D01*
X142900914Y-94872857D02*
X143091390Y-94920476D01*
X143091390Y-94920476D02*
X143234247Y-94920476D01*
X143234247Y-94920476D02*
X143424723Y-94872857D01*
X143424723Y-94872857D02*
X143519961Y-94825238D01*
X143519961Y-94825238D02*
X143615200Y-94730000D01*
X143615200Y-94730000D02*
X143662819Y-94587143D01*
X143662819Y-94587143D02*
X143662819Y-94349048D01*
X142662819Y-95253810D02*
X142662819Y-95920476D01*
X142662819Y-95920476D02*
X143662819Y-95491905D01*
X162712819Y-111744761D02*
X162712819Y-111268571D01*
X162712819Y-111268571D02*
X161712819Y-111268571D01*
X162189009Y-112078095D02*
X162189009Y-112411428D01*
X162712819Y-112554285D02*
X162712819Y-112078095D01*
X162712819Y-112078095D02*
X161712819Y-112078095D01*
X161712819Y-112078095D02*
X161712819Y-112554285D01*
X162712819Y-112982857D02*
X161712819Y-112982857D01*
X161712819Y-112982857D02*
X161712819Y-113220952D01*
X161712819Y-113220952D02*
X161760438Y-113363809D01*
X161760438Y-113363809D02*
X161855676Y-113459047D01*
X161855676Y-113459047D02*
X161950914Y-113506666D01*
X161950914Y-113506666D02*
X162141390Y-113554285D01*
X162141390Y-113554285D02*
X162284247Y-113554285D01*
X162284247Y-113554285D02*
X162474723Y-113506666D01*
X162474723Y-113506666D02*
X162569961Y-113459047D01*
X162569961Y-113459047D02*
X162665200Y-113363809D01*
X162665200Y-113363809D02*
X162712819Y-113220952D01*
X162712819Y-113220952D02*
X162712819Y-112982857D01*
X162712819Y-114506666D02*
X162712819Y-113935238D01*
X162712819Y-114220952D02*
X161712819Y-114220952D01*
X161712819Y-114220952D02*
X161855676Y-114125714D01*
X161855676Y-114125714D02*
X161950914Y-114030476D01*
X161950914Y-114030476D02*
X161998533Y-113935238D01*
X161808057Y-114887619D02*
X161760438Y-114935238D01*
X161760438Y-114935238D02*
X161712819Y-115030476D01*
X161712819Y-115030476D02*
X161712819Y-115268571D01*
X161712819Y-115268571D02*
X161760438Y-115363809D01*
X161760438Y-115363809D02*
X161808057Y-115411428D01*
X161808057Y-115411428D02*
X161903295Y-115459047D01*
X161903295Y-115459047D02*
X161998533Y-115459047D01*
X161998533Y-115459047D02*
X162141390Y-115411428D01*
X162141390Y-115411428D02*
X162712819Y-114840000D01*
X162712819Y-114840000D02*
X162712819Y-115459047D01*
X192556166Y-92774819D02*
X192889499Y-92298628D01*
X193127594Y-92774819D02*
X193127594Y-91774819D01*
X193127594Y-91774819D02*
X192746642Y-91774819D01*
X192746642Y-91774819D02*
X192651404Y-91822438D01*
X192651404Y-91822438D02*
X192603785Y-91870057D01*
X192603785Y-91870057D02*
X192556166Y-91965295D01*
X192556166Y-91965295D02*
X192556166Y-92108152D01*
X192556166Y-92108152D02*
X192603785Y-92203390D01*
X192603785Y-92203390D02*
X192651404Y-92251009D01*
X192651404Y-92251009D02*
X192746642Y-92298628D01*
X192746642Y-92298628D02*
X193127594Y-92298628D01*
X191603785Y-92774819D02*
X192175213Y-92774819D01*
X191889499Y-92774819D02*
X191889499Y-91774819D01*
X191889499Y-91774819D02*
X191984737Y-91917676D01*
X191984737Y-91917676D02*
X192079975Y-92012914D01*
X192079975Y-92012914D02*
X192175213Y-92060533D01*
X124612819Y-74120952D02*
X124612819Y-73644762D01*
X124612819Y-73644762D02*
X123612819Y-73644762D01*
X124089009Y-74454286D02*
X124089009Y-74787619D01*
X124612819Y-74930476D02*
X124612819Y-74454286D01*
X124612819Y-74454286D02*
X123612819Y-74454286D01*
X123612819Y-74454286D02*
X123612819Y-74930476D01*
X124612819Y-75359048D02*
X123612819Y-75359048D01*
X123612819Y-75359048D02*
X123612819Y-75597143D01*
X123612819Y-75597143D02*
X123660438Y-75740000D01*
X123660438Y-75740000D02*
X123755676Y-75835238D01*
X123755676Y-75835238D02*
X123850914Y-75882857D01*
X123850914Y-75882857D02*
X124041390Y-75930476D01*
X124041390Y-75930476D02*
X124184247Y-75930476D01*
X124184247Y-75930476D02*
X124374723Y-75882857D01*
X124374723Y-75882857D02*
X124469961Y-75835238D01*
X124469961Y-75835238D02*
X124565200Y-75740000D01*
X124565200Y-75740000D02*
X124612819Y-75597143D01*
X124612819Y-75597143D02*
X124612819Y-75359048D01*
X123708057Y-76311429D02*
X123660438Y-76359048D01*
X123660438Y-76359048D02*
X123612819Y-76454286D01*
X123612819Y-76454286D02*
X123612819Y-76692381D01*
X123612819Y-76692381D02*
X123660438Y-76787619D01*
X123660438Y-76787619D02*
X123708057Y-76835238D01*
X123708057Y-76835238D02*
X123803295Y-76882857D01*
X123803295Y-76882857D02*
X123898533Y-76882857D01*
X123898533Y-76882857D02*
X124041390Y-76835238D01*
X124041390Y-76835238D02*
X124612819Y-76263810D01*
X124612819Y-76263810D02*
X124612819Y-76882857D01*
X124622819Y-111754761D02*
X124622819Y-111278571D01*
X124622819Y-111278571D02*
X123622819Y-111278571D01*
X124099009Y-112088095D02*
X124099009Y-112421428D01*
X124622819Y-112564285D02*
X124622819Y-112088095D01*
X124622819Y-112088095D02*
X123622819Y-112088095D01*
X123622819Y-112088095D02*
X123622819Y-112564285D01*
X124622819Y-112992857D02*
X123622819Y-112992857D01*
X123622819Y-112992857D02*
X123622819Y-113230952D01*
X123622819Y-113230952D02*
X123670438Y-113373809D01*
X123670438Y-113373809D02*
X123765676Y-113469047D01*
X123765676Y-113469047D02*
X123860914Y-113516666D01*
X123860914Y-113516666D02*
X124051390Y-113564285D01*
X124051390Y-113564285D02*
X124194247Y-113564285D01*
X124194247Y-113564285D02*
X124384723Y-113516666D01*
X124384723Y-113516666D02*
X124479961Y-113469047D01*
X124479961Y-113469047D02*
X124575200Y-113373809D01*
X124575200Y-113373809D02*
X124622819Y-113230952D01*
X124622819Y-113230952D02*
X124622819Y-112992857D01*
X124622819Y-114516666D02*
X124622819Y-113945238D01*
X124622819Y-114230952D02*
X123622819Y-114230952D01*
X123622819Y-114230952D02*
X123765676Y-114135714D01*
X123765676Y-114135714D02*
X123860914Y-114040476D01*
X123860914Y-114040476D02*
X123908533Y-113945238D01*
X123622819Y-115135714D02*
X123622819Y-115230952D01*
X123622819Y-115230952D02*
X123670438Y-115326190D01*
X123670438Y-115326190D02*
X123718057Y-115373809D01*
X123718057Y-115373809D02*
X123813295Y-115421428D01*
X123813295Y-115421428D02*
X124003771Y-115469047D01*
X124003771Y-115469047D02*
X124241866Y-115469047D01*
X124241866Y-115469047D02*
X124432342Y-115421428D01*
X124432342Y-115421428D02*
X124527580Y-115373809D01*
X124527580Y-115373809D02*
X124575200Y-115326190D01*
X124575200Y-115326190D02*
X124622819Y-115230952D01*
X124622819Y-115230952D02*
X124622819Y-115135714D01*
X124622819Y-115135714D02*
X124575200Y-115040476D01*
X124575200Y-115040476D02*
X124527580Y-114992857D01*
X124527580Y-114992857D02*
X124432342Y-114945238D01*
X124432342Y-114945238D02*
X124241866Y-114897619D01*
X124241866Y-114897619D02*
X124003771Y-114897619D01*
X124003771Y-114897619D02*
X123813295Y-114945238D01*
X123813295Y-114945238D02*
X123718057Y-114992857D01*
X123718057Y-114992857D02*
X123670438Y-115040476D01*
X123670438Y-115040476D02*
X123622819Y-115135714D01*
X143672819Y-111674761D02*
X143672819Y-111198571D01*
X143672819Y-111198571D02*
X142672819Y-111198571D01*
X143149009Y-112008095D02*
X143149009Y-112341428D01*
X143672819Y-112484285D02*
X143672819Y-112008095D01*
X143672819Y-112008095D02*
X142672819Y-112008095D01*
X142672819Y-112008095D02*
X142672819Y-112484285D01*
X143672819Y-112912857D02*
X142672819Y-112912857D01*
X142672819Y-112912857D02*
X142672819Y-113150952D01*
X142672819Y-113150952D02*
X142720438Y-113293809D01*
X142720438Y-113293809D02*
X142815676Y-113389047D01*
X142815676Y-113389047D02*
X142910914Y-113436666D01*
X142910914Y-113436666D02*
X143101390Y-113484285D01*
X143101390Y-113484285D02*
X143244247Y-113484285D01*
X143244247Y-113484285D02*
X143434723Y-113436666D01*
X143434723Y-113436666D02*
X143529961Y-113389047D01*
X143529961Y-113389047D02*
X143625200Y-113293809D01*
X143625200Y-113293809D02*
X143672819Y-113150952D01*
X143672819Y-113150952D02*
X143672819Y-112912857D01*
X143672819Y-114436666D02*
X143672819Y-113865238D01*
X143672819Y-114150952D02*
X142672819Y-114150952D01*
X142672819Y-114150952D02*
X142815676Y-114055714D01*
X142815676Y-114055714D02*
X142910914Y-113960476D01*
X142910914Y-113960476D02*
X142958533Y-113865238D01*
X143672819Y-115389047D02*
X143672819Y-114817619D01*
X143672819Y-115103333D02*
X142672819Y-115103333D01*
X142672819Y-115103333D02*
X142815676Y-115008095D01*
X142815676Y-115008095D02*
X142910914Y-114912857D01*
X142910914Y-114912857D02*
X142958533Y-114817619D01*
X189103785Y-87524819D02*
X189103785Y-86524819D01*
X189103785Y-86524819D02*
X188865690Y-86524819D01*
X188865690Y-86524819D02*
X188722833Y-86572438D01*
X188722833Y-86572438D02*
X188627595Y-86667676D01*
X188627595Y-86667676D02*
X188579976Y-86762914D01*
X188579976Y-86762914D02*
X188532357Y-86953390D01*
X188532357Y-86953390D02*
X188532357Y-87096247D01*
X188532357Y-87096247D02*
X188579976Y-87286723D01*
X188579976Y-87286723D02*
X188627595Y-87381961D01*
X188627595Y-87381961D02*
X188722833Y-87477200D01*
X188722833Y-87477200D02*
X188865690Y-87524819D01*
X188865690Y-87524819D02*
X189103785Y-87524819D01*
X187579976Y-87524819D02*
X188151404Y-87524819D01*
X187865690Y-87524819D02*
X187865690Y-86524819D01*
X187865690Y-86524819D02*
X187960928Y-86667676D01*
X187960928Y-86667676D02*
X188056166Y-86762914D01*
X188056166Y-86762914D02*
X188151404Y-86810533D01*
X187199023Y-86620057D02*
X187151404Y-86572438D01*
X187151404Y-86572438D02*
X187056166Y-86524819D01*
X187056166Y-86524819D02*
X186818071Y-86524819D01*
X186818071Y-86524819D02*
X186722833Y-86572438D01*
X186722833Y-86572438D02*
X186675214Y-86620057D01*
X186675214Y-86620057D02*
X186627595Y-86715295D01*
X186627595Y-86715295D02*
X186627595Y-86810533D01*
X186627595Y-86810533D02*
X186675214Y-86953390D01*
X186675214Y-86953390D02*
X187246642Y-87524819D01*
X187246642Y-87524819D02*
X186627595Y-87524819D01*
X193127594Y-75274819D02*
X193127594Y-74274819D01*
X193127594Y-74274819D02*
X192889499Y-74274819D01*
X192889499Y-74274819D02*
X192746642Y-74322438D01*
X192746642Y-74322438D02*
X192651404Y-74417676D01*
X192651404Y-74417676D02*
X192603785Y-74512914D01*
X192603785Y-74512914D02*
X192556166Y-74703390D01*
X192556166Y-74703390D02*
X192556166Y-74846247D01*
X192556166Y-74846247D02*
X192603785Y-75036723D01*
X192603785Y-75036723D02*
X192651404Y-75131961D01*
X192651404Y-75131961D02*
X192746642Y-75227200D01*
X192746642Y-75227200D02*
X192889499Y-75274819D01*
X192889499Y-75274819D02*
X193127594Y-75274819D01*
X192175213Y-74370057D02*
X192127594Y-74322438D01*
X192127594Y-74322438D02*
X192032356Y-74274819D01*
X192032356Y-74274819D02*
X191794261Y-74274819D01*
X191794261Y-74274819D02*
X191699023Y-74322438D01*
X191699023Y-74322438D02*
X191651404Y-74370057D01*
X191651404Y-74370057D02*
X191603785Y-74465295D01*
X191603785Y-74465295D02*
X191603785Y-74560533D01*
X191603785Y-74560533D02*
X191651404Y-74703390D01*
X191651404Y-74703390D02*
X192222832Y-75274819D01*
X192222832Y-75274819D02*
X191603785Y-75274819D01*
X193127594Y-82274819D02*
X193127594Y-81274819D01*
X193127594Y-81274819D02*
X192889499Y-81274819D01*
X192889499Y-81274819D02*
X192746642Y-81322438D01*
X192746642Y-81322438D02*
X192651404Y-81417676D01*
X192651404Y-81417676D02*
X192603785Y-81512914D01*
X192603785Y-81512914D02*
X192556166Y-81703390D01*
X192556166Y-81703390D02*
X192556166Y-81846247D01*
X192556166Y-81846247D02*
X192603785Y-82036723D01*
X192603785Y-82036723D02*
X192651404Y-82131961D01*
X192651404Y-82131961D02*
X192746642Y-82227200D01*
X192746642Y-82227200D02*
X192889499Y-82274819D01*
X192889499Y-82274819D02*
X193127594Y-82274819D01*
X191699023Y-81608152D02*
X191699023Y-82274819D01*
X191937118Y-81227200D02*
X192175213Y-81941485D01*
X192175213Y-81941485D02*
X191556166Y-81941485D01*
X188627594Y-70024819D02*
X188627594Y-69024819D01*
X188627594Y-69024819D02*
X188389499Y-69024819D01*
X188389499Y-69024819D02*
X188246642Y-69072438D01*
X188246642Y-69072438D02*
X188151404Y-69167676D01*
X188151404Y-69167676D02*
X188103785Y-69262914D01*
X188103785Y-69262914D02*
X188056166Y-69453390D01*
X188056166Y-69453390D02*
X188056166Y-69596247D01*
X188056166Y-69596247D02*
X188103785Y-69786723D01*
X188103785Y-69786723D02*
X188151404Y-69881961D01*
X188151404Y-69881961D02*
X188246642Y-69977200D01*
X188246642Y-69977200D02*
X188389499Y-70024819D01*
X188389499Y-70024819D02*
X188627594Y-70024819D01*
X187722832Y-69024819D02*
X187056166Y-69024819D01*
X187056166Y-69024819D02*
X187484737Y-70024819D01*
%TO.C,SW2*%
X122377500Y-66255000D02*
X122377500Y-66636000D01*
X122377500Y-69684000D02*
X122377500Y-70065000D01*
X122758500Y-70065000D02*
X122377500Y-70065000D01*
X124917500Y-63715000D02*
X133807500Y-63715000D01*
X126263338Y-70065000D02*
X124536500Y-70065000D01*
X133807500Y-63715000D02*
X133807500Y-64096000D01*
X133807500Y-67144000D02*
X133807500Y-68160000D01*
X133807500Y-68160000D02*
X128727500Y-68160000D01*
X124917500Y-63715000D02*
G75*
G03*
X122377500Y-66255000I1J-2540001D01*
G01*
X128727500Y-68160000D02*
G75*
G03*
X126263339Y-70083960I0J-2539999D01*
G01*
%TO.C,SW7*%
X141427500Y-85225000D02*
X141427500Y-85606000D01*
X141427500Y-88654000D02*
X141427500Y-89035000D01*
X141808500Y-89035000D02*
X141427500Y-89035000D01*
X143967500Y-82685000D02*
X152857500Y-82685000D01*
X145313338Y-89035000D02*
X143586500Y-89035000D01*
X152857500Y-82685000D02*
X152857500Y-83066000D01*
X152857500Y-86114000D02*
X152857500Y-87130000D01*
X152857500Y-87130000D02*
X147777500Y-87130000D01*
X143967500Y-82685000D02*
G75*
G03*
X141427500Y-85225000I1J-2540001D01*
G01*
X147777500Y-87130000D02*
G75*
G03*
X145313339Y-89053960I0J-2539999D01*
G01*
%TO.C,SW5*%
X103327500Y-85305000D02*
X103327500Y-85686000D01*
X103327500Y-88734000D02*
X103327500Y-89115000D01*
X103708500Y-89115000D02*
X103327500Y-89115000D01*
X105867500Y-82765000D02*
X114757500Y-82765000D01*
X107213338Y-89115000D02*
X105486500Y-89115000D01*
X114757500Y-82765000D02*
X114757500Y-83146000D01*
X114757500Y-86194000D02*
X114757500Y-87210000D01*
X114757500Y-87210000D02*
X109677500Y-87210000D01*
X105867500Y-82765000D02*
G75*
G03*
X103327500Y-85305000I1J-2540001D01*
G01*
X109677500Y-87210000D02*
G75*
G03*
X107213339Y-89133960I0J-2539999D01*
G01*
%TO.C,SW11*%
X141440000Y-104275000D02*
X141440000Y-104656000D01*
X141440000Y-107704000D02*
X141440000Y-108085000D01*
X141821000Y-108085000D02*
X141440000Y-108085000D01*
X143980000Y-101735000D02*
X152870000Y-101735000D01*
X145325838Y-108085000D02*
X143599000Y-108085000D01*
X152870000Y-101735000D02*
X152870000Y-102116000D01*
X152870000Y-105164000D02*
X152870000Y-106180000D01*
X152870000Y-106180000D02*
X147790000Y-106180000D01*
X143980000Y-101735000D02*
G75*
G03*
X141440000Y-104275000I1J-2540001D01*
G01*
X147790000Y-106180000D02*
G75*
G03*
X145325839Y-108103960I0J-2539999D01*
G01*
%TO.C,SW10*%
X122377500Y-104355000D02*
X122377500Y-104736000D01*
X122377500Y-107784000D02*
X122377500Y-108165000D01*
X122758500Y-108165000D02*
X122377500Y-108165000D01*
X124917500Y-101815000D02*
X133807500Y-101815000D01*
X126263338Y-108165000D02*
X124536500Y-108165000D01*
X133807500Y-101815000D02*
X133807500Y-102196000D01*
X133807500Y-105244000D02*
X133807500Y-106260000D01*
X133807500Y-106260000D02*
X128727500Y-106260000D01*
X124917500Y-101815000D02*
G75*
G03*
X122377500Y-104355000I1J-2540001D01*
G01*
X128727500Y-106260000D02*
G75*
G03*
X126263339Y-108183960I0J-2539999D01*
G01*
%TO.C,SW1*%
X103327500Y-66255000D02*
X103327500Y-66636000D01*
X103327500Y-69684000D02*
X103327500Y-70065000D01*
X103708500Y-70065000D02*
X103327500Y-70065000D01*
X105867500Y-63715000D02*
X114757500Y-63715000D01*
X107213338Y-70065000D02*
X105486500Y-70065000D01*
X114757500Y-63715000D02*
X114757500Y-64096000D01*
X114757500Y-67144000D02*
X114757500Y-68160000D01*
X114757500Y-68160000D02*
X109677500Y-68160000D01*
X105867500Y-63715000D02*
G75*
G03*
X103327500Y-66255000I1J-2540001D01*
G01*
X109677500Y-68160000D02*
G75*
G03*
X107213339Y-70083960I0J-2539999D01*
G01*
%TO.C,SW8*%
X160477500Y-85305000D02*
X160477500Y-85686000D01*
X160477500Y-88734000D02*
X160477500Y-89115000D01*
X160858500Y-89115000D02*
X160477500Y-89115000D01*
X163017500Y-82765000D02*
X171907500Y-82765000D01*
X164363338Y-89115000D02*
X162636500Y-89115000D01*
X171907500Y-82765000D02*
X171907500Y-83146000D01*
X171907500Y-86194000D02*
X171907500Y-87210000D01*
X171907500Y-87210000D02*
X166827500Y-87210000D01*
X163017500Y-82765000D02*
G75*
G03*
X160477500Y-85305000I1J-2540001D01*
G01*
X166827500Y-87210000D02*
G75*
G03*
X164363339Y-89133960I0J-2539999D01*
G01*
%TO.C,SW6*%
X122377500Y-85305000D02*
X122377500Y-85686000D01*
X122377500Y-88734000D02*
X122377500Y-89115000D01*
X122758500Y-89115000D02*
X122377500Y-89115000D01*
X124917500Y-82765000D02*
X133807500Y-82765000D01*
X126263338Y-89115000D02*
X124536500Y-89115000D01*
X133807500Y-82765000D02*
X133807500Y-83146000D01*
X133807500Y-86194000D02*
X133807500Y-87210000D01*
X133807500Y-87210000D02*
X128727500Y-87210000D01*
X124917500Y-82765000D02*
G75*
G03*
X122377500Y-85305000I1J-2540001D01*
G01*
X128727500Y-87210000D02*
G75*
G03*
X126263339Y-89133960I0J-2539999D01*
G01*
%TO.C,SW9*%
X103327500Y-104355000D02*
X103327500Y-104736000D01*
X103327500Y-107784000D02*
X103327500Y-108165000D01*
X103708500Y-108165000D02*
X103327500Y-108165000D01*
X105867500Y-101815000D02*
X114757500Y-101815000D01*
X107213338Y-108165000D02*
X105486500Y-108165000D01*
X114757500Y-101815000D02*
X114757500Y-102196000D01*
X114757500Y-105244000D02*
X114757500Y-106260000D01*
X114757500Y-106260000D02*
X109677500Y-106260000D01*
X105867500Y-101815000D02*
G75*
G03*
X103327500Y-104355000I1J-2540001D01*
G01*
X109677500Y-106260000D02*
G75*
G03*
X107213339Y-108183960I0J-2539999D01*
G01*
%TO.C,SW12*%
X160477500Y-104355000D02*
X160477500Y-104736000D01*
X160477500Y-107784000D02*
X160477500Y-108165000D01*
X160858500Y-108165000D02*
X160477500Y-108165000D01*
X163017500Y-101815000D02*
X171907500Y-101815000D01*
X164363338Y-108165000D02*
X162636500Y-108165000D01*
X171907500Y-101815000D02*
X171907500Y-102196000D01*
X171907500Y-105244000D02*
X171907500Y-106260000D01*
X171907500Y-106260000D02*
X166827500Y-106260000D01*
X163017500Y-101815000D02*
G75*
G03*
X160477500Y-104355000I1J-2540001D01*
G01*
X166827500Y-106260000D02*
G75*
G03*
X164363339Y-108183960I0J-2539999D01*
G01*
%TO.C,SW3*%
X141427500Y-66255000D02*
X141427500Y-66636000D01*
X141427500Y-69684000D02*
X141427500Y-70065000D01*
X141808500Y-70065000D02*
X141427500Y-70065000D01*
X143967500Y-63715000D02*
X152857500Y-63715000D01*
X145313338Y-70065000D02*
X143586500Y-70065000D01*
X152857500Y-63715000D02*
X152857500Y-64096000D01*
X152857500Y-67144000D02*
X152857500Y-68160000D01*
X152857500Y-68160000D02*
X147777500Y-68160000D01*
X143967500Y-63715000D02*
G75*
G03*
X141427500Y-66255000I1J-2540001D01*
G01*
X147777500Y-68160000D02*
G75*
G03*
X145313339Y-70083960I0J-2539999D01*
G01*
%TO.C,SW4*%
X160477500Y-66255000D02*
X160477500Y-66636000D01*
X160477500Y-69684000D02*
X160477500Y-70065000D01*
X160858500Y-70065000D02*
X160477500Y-70065000D01*
X163017500Y-63715000D02*
X171907500Y-63715000D01*
X164363338Y-70065000D02*
X162636500Y-70065000D01*
X171907500Y-63715000D02*
X171907500Y-64096000D01*
X171907500Y-67144000D02*
X171907500Y-68160000D01*
X171907500Y-68160000D02*
X166827500Y-68160000D01*
X163017500Y-63715000D02*
G75*
G03*
X160477500Y-66255000I1J-2540001D01*
G01*
X166827500Y-68160000D02*
G75*
G03*
X164363339Y-70083960I0J-2539999D01*
G01*
D11*
%TO.C,LED6*%
X130457200Y-92776000D02*
X127002800Y-92776000D01*
X127002800Y-95824000D02*
X130457200Y-95824000D01*
D12*
%TO.C,D8*%
X189549500Y-75235000D02*
X187089500Y-75235000D01*
X189549500Y-73765000D02*
X189549500Y-75235000D01*
X187089500Y-73765000D02*
X189549500Y-73765000D01*
D11*
%TO.C,LED9*%
X111407200Y-111826000D02*
X107952800Y-111826000D01*
X107952800Y-114874000D02*
X111407200Y-114874000D01*
D12*
%TO.C,D3*%
X194049500Y-80485000D02*
X191589500Y-80485000D01*
X194049500Y-79015000D02*
X194049500Y-80485000D01*
X191589500Y-79015000D02*
X194049500Y-79015000D01*
%TO.C,D6*%
X194049500Y-90985000D02*
X191589500Y-90985000D01*
X194049500Y-89515000D02*
X194049500Y-90985000D01*
X191589500Y-89515000D02*
X194049500Y-89515000D01*
D11*
%TO.C,LED1*%
X111407200Y-73726000D02*
X107952800Y-73726000D01*
X107952800Y-76774000D02*
X111407200Y-76774000D01*
D12*
%TO.C,D13*%
X189549500Y-92735000D02*
X187089500Y-92735000D01*
X189549500Y-91265000D02*
X189549500Y-92735000D01*
X187089500Y-91265000D02*
X189549500Y-91265000D01*
%TO.C,D11*%
X189549500Y-85735000D02*
X187089500Y-85735000D01*
X189549500Y-84265000D02*
X189549500Y-85735000D01*
X187089500Y-84265000D02*
X189549500Y-84265000D01*
%TO.C,D1*%
X194049500Y-73335000D02*
X191589500Y-73335000D01*
X194049500Y-71865000D02*
X194049500Y-73335000D01*
X191589500Y-71865000D02*
X194049500Y-71865000D01*
D11*
%TO.C,LED3*%
X149507200Y-73726000D02*
X146052800Y-73726000D01*
X146052800Y-76774000D02*
X149507200Y-76774000D01*
D12*
%TO.C,D10*%
X189549500Y-82235000D02*
X187089500Y-82235000D01*
X189549500Y-80765000D02*
X189549500Y-82235000D01*
X187089500Y-80765000D02*
X189549500Y-80765000D01*
D11*
%TO.C,LED4*%
X168547200Y-73726000D02*
X165092800Y-73726000D01*
X165092800Y-76774000D02*
X168547200Y-76774000D01*
%TO.C,LED5*%
X111407200Y-92776000D02*
X107952800Y-92776000D01*
X107952800Y-95824000D02*
X111407200Y-95824000D01*
%TO.C,LED8*%
X168557200Y-92776000D02*
X165102800Y-92776000D01*
X165102800Y-95824000D02*
X168557200Y-95824000D01*
D12*
%TO.C,D5*%
X194049500Y-87485000D02*
X191589500Y-87485000D01*
X194049500Y-86015000D02*
X194049500Y-87485000D01*
X191589500Y-86015000D02*
X194049500Y-86015000D01*
%TO.C,D9*%
X189549500Y-78735000D02*
X187089500Y-78735000D01*
X189549500Y-77265000D02*
X189549500Y-78735000D01*
X187089500Y-77265000D02*
X189549500Y-77265000D01*
D11*
%TO.C,LED7*%
X149507200Y-92706000D02*
X146052800Y-92706000D01*
X146052800Y-95754000D02*
X149507200Y-95754000D01*
%TO.C,LED12*%
X168557200Y-111816000D02*
X165102800Y-111816000D01*
X165102800Y-114864000D02*
X168557200Y-114864000D01*
D12*
%TO.C,R1*%
X192644224Y-94272500D02*
X192134776Y-94272500D01*
X192644224Y-93227500D02*
X192134776Y-93227500D01*
D11*
%TO.C,LED2*%
X130457200Y-73716000D02*
X127002800Y-73716000D01*
X127002800Y-76764000D02*
X130457200Y-76764000D01*
%TO.C,LED10*%
X130467200Y-111826000D02*
X127012800Y-111826000D01*
X127012800Y-114874000D02*
X130467200Y-114874000D01*
%TO.C,LED11*%
X149517200Y-111746000D02*
X146062800Y-111746000D01*
X146062800Y-114794000D02*
X149517200Y-114794000D01*
D12*
%TO.C,D12*%
X189549500Y-89235000D02*
X187089500Y-89235000D01*
X189549500Y-87765000D02*
X189549500Y-89235000D01*
X187089500Y-87765000D02*
X189549500Y-87765000D01*
%TO.C,D2*%
X194049500Y-76985000D02*
X191589500Y-76985000D01*
X194049500Y-75515000D02*
X194049500Y-76985000D01*
X191589500Y-75515000D02*
X194049500Y-75515000D01*
%TO.C,D4*%
X194049500Y-83985000D02*
X191589500Y-83985000D01*
X194049500Y-82515000D02*
X194049500Y-83985000D01*
X191589500Y-82515000D02*
X194049500Y-82515000D01*
%TO.C,D7*%
X189549500Y-71735000D02*
X187089500Y-71735000D01*
X189549500Y-70265000D02*
X189549500Y-71735000D01*
X187089500Y-70265000D02*
X189549500Y-70265000D01*
%TD*%
M02*
