%TF.GenerationSoftware,KiCad,Pcbnew,7.0.10*%
%TF.CreationDate,2026-02-14T21:30:49-08:00*%
%TF.ProjectId,12kempV2.1,31326b65-6d70-4563-922e-312e6b696361,rev?*%
%TF.SameCoordinates,Original*%
%TF.FileFunction,Soldermask,Bot*%
%TF.FilePolarity,Negative*%
%FSLAX46Y46*%
G04 Gerber Fmt 4.6, Leading zero omitted, Abs format (unit mm)*
G04 Created by KiCad (PCBNEW 7.0.10) date 2026-02-14 21:30:49*
%MOMM*%
%LPD*%
G01*
G04 APERTURE LIST*
G04 Aperture macros list*
%AMRoundRect*
0 Rectangle with rounded corners*
0 $1 Rounding radius*
0 $2 $3 $4 $5 $6 $7 $8 $9 X,Y pos of 4 corners*
0 Add a 4 corners polygon primitive as box body*
4,1,4,$2,$3,$4,$5,$6,$7,$8,$9,$2,$3,0*
0 Add four circle primitives for the rounded corners*
1,1,$1+$1,$2,$3*
1,1,$1+$1,$4,$5*
1,1,$1+$1,$6,$7*
1,1,$1+$1,$8,$9*
0 Add four rect primitives between the rounded corners*
20,1,$1+$1,$2,$3,$4,$5,0*
20,1,$1+$1,$4,$5,$6,$7,0*
20,1,$1+$1,$6,$7,$8,$9,0*
20,1,$1+$1,$8,$9,$2,$3,0*%
G04 Aperture macros list end*
%ADD10C,1.701800*%
%ADD11C,3.000000*%
%ADD12C,3.987800*%
%ADD13R,2.550000X2.500000*%
%ADD14RoundRect,0.250000X0.550000X-0.550000X0.550000X0.550000X-0.550000X0.550000X-0.550000X-0.550000X0*%
%ADD15C,1.600000*%
%ADD16O,3.000000X4.100000*%
%ADD17R,1.803400X0.812800*%
%ADD18RoundRect,0.237500X0.287500X0.237500X-0.287500X0.237500X-0.287500X-0.237500X0.287500X-0.237500X0*%
%ADD19RoundRect,0.237500X0.250000X0.237500X-0.250000X0.237500X-0.250000X-0.237500X0.250000X-0.237500X0*%
G04 APERTURE END LIST*
D10*
%TO.C,SW2*%
X123647500Y-70700000D03*
D11*
X124917500Y-68160000D03*
D12*
X128727500Y-70700000D03*
D11*
X131267500Y-65620000D03*
D10*
X133807500Y-70700000D03*
D13*
X135017500Y-65620000D03*
X121167500Y-68160000D03*
%TD*%
D10*
%TO.C,SW7*%
X142697500Y-89670000D03*
D11*
X143967500Y-87130000D03*
D12*
X147777500Y-89670000D03*
D11*
X150317500Y-84590000D03*
D10*
X152857500Y-89670000D03*
D13*
X154067500Y-84590000D03*
X140217500Y-87130000D03*
%TD*%
D10*
%TO.C,SW5*%
X104597500Y-89750000D03*
D11*
X105867500Y-87210000D03*
D12*
X109677500Y-89750000D03*
D11*
X112217500Y-84670000D03*
D10*
X114757500Y-89750000D03*
D13*
X115967500Y-84670000D03*
X102117500Y-87210000D03*
%TD*%
D10*
%TO.C,SW11*%
X142710000Y-108720000D03*
D11*
X143980000Y-106180000D03*
D12*
X147790000Y-108720000D03*
D11*
X150330000Y-103640000D03*
D10*
X152870000Y-108720000D03*
D13*
X154080000Y-103640000D03*
X140230000Y-106180000D03*
%TD*%
D10*
%TO.C,SW10*%
X123647500Y-108800000D03*
D11*
X124917500Y-106260000D03*
D12*
X128727500Y-108800000D03*
D11*
X131267500Y-103720000D03*
D10*
X133807500Y-108800000D03*
D13*
X135017500Y-103720000D03*
X121167500Y-106260000D03*
%TD*%
D10*
%TO.C,SW1*%
X104597500Y-70700000D03*
D11*
X105867500Y-68160000D03*
D12*
X109677500Y-70700000D03*
D11*
X112217500Y-65620000D03*
D10*
X114757500Y-70700000D03*
D13*
X115967500Y-65620000D03*
X102117500Y-68160000D03*
%TD*%
D10*
%TO.C,SW8*%
X161747500Y-89750000D03*
D11*
X163017500Y-87210000D03*
D12*
X166827500Y-89750000D03*
D11*
X169367500Y-84670000D03*
D10*
X171907500Y-89750000D03*
D13*
X173117500Y-84670000D03*
X159267500Y-87210000D03*
%TD*%
D10*
%TO.C,SW6*%
X123647500Y-89750000D03*
D11*
X124917500Y-87210000D03*
D12*
X128727500Y-89750000D03*
D11*
X131267500Y-84670000D03*
D10*
X133807500Y-89750000D03*
D13*
X135017500Y-84670000D03*
X121167500Y-87210000D03*
%TD*%
D10*
%TO.C,SW9*%
X104597500Y-108800000D03*
D11*
X105867500Y-106260000D03*
D12*
X109677500Y-108800000D03*
D11*
X112217500Y-103720000D03*
D10*
X114757500Y-108800000D03*
D13*
X115967500Y-103720000D03*
X102117500Y-106260000D03*
%TD*%
D10*
%TO.C,SW12*%
X161747500Y-108800000D03*
D11*
X163017500Y-106260000D03*
D12*
X166827500Y-108800000D03*
D11*
X169367500Y-103720000D03*
D10*
X171907500Y-108800000D03*
D13*
X173117500Y-103720000D03*
X159267500Y-106260000D03*
%TD*%
D10*
%TO.C,SW3*%
X142697500Y-70700000D03*
D11*
X143967500Y-68160000D03*
D12*
X147777500Y-70700000D03*
D11*
X150317500Y-65620000D03*
D10*
X152857500Y-70700000D03*
D13*
X154067500Y-65620000D03*
X140217500Y-68160000D03*
%TD*%
D14*
%TO.C,SW13*%
X190250000Y-108750000D03*
D15*
X195250000Y-108750000D03*
X192750000Y-108750000D03*
X190250000Y-94250000D03*
X195250000Y-94250000D03*
D16*
X187150000Y-101250000D03*
X198350000Y-101250000D03*
%TD*%
D10*
%TO.C,SW4*%
X161747500Y-70700000D03*
D11*
X163017500Y-68160000D03*
D12*
X166827500Y-70700000D03*
D11*
X169367500Y-65620000D03*
D10*
X171907500Y-70700000D03*
D13*
X173117500Y-65620000D03*
X159267500Y-68160000D03*
%TD*%
D17*
%TO.C,LED6*%
X131231900Y-95049300D03*
X131231900Y-93550700D03*
X126228100Y-93550700D03*
X126228100Y-95049300D03*
%TD*%
D18*
%TO.C,D8*%
X188764500Y-74500000D03*
X187014500Y-74500000D03*
%TD*%
D17*
%TO.C,LED9*%
X112181900Y-114099300D03*
X112181900Y-112600700D03*
X107178100Y-112600700D03*
X107178100Y-114099300D03*
%TD*%
D18*
%TO.C,D3*%
X193264500Y-79750000D03*
X191514500Y-79750000D03*
%TD*%
%TO.C,D6*%
X193264500Y-90250000D03*
X191514500Y-90250000D03*
%TD*%
D17*
%TO.C,LED1*%
X112181900Y-75999300D03*
X112181900Y-74500700D03*
X107178100Y-74500700D03*
X107178100Y-75999300D03*
%TD*%
D18*
%TO.C,D13*%
X188764500Y-92000000D03*
X187014500Y-92000000D03*
%TD*%
%TO.C,D11*%
X188764500Y-85000000D03*
X187014500Y-85000000D03*
%TD*%
%TO.C,D1*%
X193264500Y-72600000D03*
X191514500Y-72600000D03*
%TD*%
D17*
%TO.C,LED3*%
X150281900Y-75999300D03*
X150281900Y-74500700D03*
X145278100Y-74500700D03*
X145278100Y-75999300D03*
%TD*%
D18*
%TO.C,D10*%
X188764500Y-81500000D03*
X187014500Y-81500000D03*
%TD*%
D17*
%TO.C,LED4*%
X169321900Y-75999300D03*
X169321900Y-74500700D03*
X164318100Y-74500700D03*
X164318100Y-75999300D03*
%TD*%
%TO.C,LED5*%
X112181900Y-95049300D03*
X112181900Y-93550700D03*
X107178100Y-93550700D03*
X107178100Y-95049300D03*
%TD*%
%TO.C,LED8*%
X169331900Y-95049300D03*
X169331900Y-93550700D03*
X164328100Y-93550700D03*
X164328100Y-95049300D03*
%TD*%
D18*
%TO.C,D5*%
X193264500Y-86750000D03*
X191514500Y-86750000D03*
%TD*%
%TO.C,D9*%
X188764500Y-78000000D03*
X187014500Y-78000000D03*
%TD*%
D17*
%TO.C,LED7*%
X150281900Y-94979300D03*
X150281900Y-93480700D03*
X145278100Y-93480700D03*
X145278100Y-94979300D03*
%TD*%
%TO.C,LED12*%
X169331900Y-114089300D03*
X169331900Y-112590700D03*
X164328100Y-112590700D03*
X164328100Y-114089300D03*
%TD*%
D19*
%TO.C,R1*%
X193302000Y-93750000D03*
X191477000Y-93750000D03*
%TD*%
D17*
%TO.C,LED2*%
X131231900Y-75989300D03*
X131231900Y-74490700D03*
X126228100Y-74490700D03*
X126228100Y-75989300D03*
%TD*%
%TO.C,LED10*%
X131241900Y-114099300D03*
X131241900Y-112600700D03*
X126238100Y-112600700D03*
X126238100Y-114099300D03*
%TD*%
%TO.C,LED11*%
X150291900Y-114019300D03*
X150291900Y-112520700D03*
X145288100Y-112520700D03*
X145288100Y-114019300D03*
%TD*%
D18*
%TO.C,D12*%
X188764500Y-88500000D03*
X187014500Y-88500000D03*
%TD*%
%TO.C,D2*%
X193264500Y-76250000D03*
X191514500Y-76250000D03*
%TD*%
%TO.C,D4*%
X193264500Y-83250000D03*
X191514500Y-83250000D03*
%TD*%
%TO.C,D7*%
X188764500Y-71000000D03*
X187014500Y-71000000D03*
%TD*%
M02*
