M48
; DRILL file {KiCad 7.0.10} date Sat Feb 14 21:30:50 2026
; FORMAT={-:-/ absolute / inch / decimal}
; #@! TF.CreationDate,2026-02-14T21:30:50-08:00
; #@! TF.GenerationSoftware,Kicad,Pcbnew,7.0.10
; #@! TF.FileFunction,NonPlated,1,2,NPTH
FMAT,2
INCH
; #@! TA.AperFunction,NonPlated,NPTH,ComponentDrill
T1C0.0670
; #@! TA.AperFunction,NonPlated,NPTH,ComponentDrill
T2C0.1181
; #@! TA.AperFunction,NonPlated,NPTH,ComponentDrill
T3C0.1570
%
G90
G05
T1
X4.118Y-2.7835
X4.118Y-3.5335
X4.118Y-4.2835
X4.518Y-2.7835
X4.518Y-3.5335
X4.518Y-4.2835
X4.868Y-2.7835
X4.868Y-3.5335
X4.868Y-4.2835
X5.268Y-2.7835
X5.268Y-3.5335
X5.268Y-4.2835
X5.618Y-2.7835
X5.618Y-3.5303
X5.6185Y-4.2803
X6.018Y-2.7835
X6.018Y-3.5303
X6.0185Y-4.2803
X6.368Y-2.7835
X6.368Y-3.5335
X6.368Y-4.2835
X6.768Y-2.7835
X6.768Y-3.5335
X6.768Y-4.2835
T2
X4.168Y-2.6835
X4.168Y-3.4335
X4.168Y-4.1835
X4.418Y-2.5835
X4.418Y-3.3335
X4.418Y-4.0835
X4.918Y-2.6835
X4.918Y-3.4335
X4.918Y-4.1835
X5.168Y-2.5835
X5.168Y-3.3335
X5.168Y-4.0835
X5.668Y-2.6835
X5.668Y-3.4303
X5.6685Y-4.1803
X5.918Y-2.5835
X5.918Y-3.3303
X5.9185Y-4.0803
X6.418Y-2.6835
X6.418Y-3.4335
X6.418Y-4.1835
X6.668Y-2.5835
X6.668Y-3.3335
X6.668Y-4.0835
T3
X4.318Y-2.7835
X4.318Y-3.5335
X4.318Y-4.2835
X5.068Y-2.7835
X5.068Y-3.5335
X5.068Y-4.2835
X5.818Y-2.7835
X5.818Y-3.5303
X5.8185Y-4.2803
X6.568Y-2.7835
X6.568Y-3.5335
X6.568Y-4.2835
M30
