%TF.GenerationSoftware,KiCad,Pcbnew,7.0.10*%
%TF.CreationDate,2026-02-14T21:30:49-08:00*%
%TF.ProjectId,12kempV2.1,31326b65-6d70-4563-922e-312e6b696361,rev?*%
%TF.SameCoordinates,Original*%
%TF.FileFunction,Profile,NP*%
%FSLAX46Y46*%
G04 Gerber Fmt 4.6, Leading zero omitted, Abs format (unit mm)*
G04 Created by KiCad (PCBNEW 7.0.10) date 2026-02-14 21:30:49*
%MOMM*%
%LPD*%
G01*
G04 APERTURE LIST*
%TA.AperFunction,Profile*%
%ADD10C,0.100000*%
%TD*%
%TA.AperFunction,Profile*%
%ADD11C,0.200000*%
%TD*%
%TA.AperFunction,Profile*%
%ADD12C,0.025400*%
%TD*%
%TA.AperFunction,Profile*%
%ADD13C,0.050000*%
%TD*%
G04 APERTURE END LIST*
D10*
X206360000Y-118492900D02*
G75*
G03*
X207360000Y-117492889I0J1000000D01*
G01*
X93300000Y-61400000D02*
G75*
G03*
X92300000Y-62400000I0J-1000000D01*
G01*
X207350000Y-62400000D02*
X207360000Y-117492889D01*
X198200000Y-61400000D02*
X206350000Y-61400000D01*
X92300000Y-117500000D02*
G75*
G03*
X93300000Y-118500000I1000000J0D01*
G01*
X204600000Y-66000000D02*
G75*
G03*
X201400000Y-66000000I-1600000J0D01*
G01*
X201400000Y-66000000D02*
G75*
G03*
X204600000Y-66000000I1600000J0D01*
G01*
X92300000Y-117500000D02*
X92300000Y-62400000D01*
D11*
X207350000Y-62400000D02*
G75*
G03*
X206350000Y-61400000I-1000000J0D01*
G01*
D10*
X98600000Y-114000000D02*
G75*
G03*
X95400000Y-114000000I-1600000J0D01*
G01*
X95400000Y-114000000D02*
G75*
G03*
X98600000Y-114000000I1600000J0D01*
G01*
X98600125Y-66000000D02*
G75*
G03*
X95399875Y-66000000I-1600125J0D01*
G01*
X95399875Y-66000000D02*
G75*
G03*
X98600125Y-66000000I1600125J0D01*
G01*
X206360000Y-118492889D02*
X93300000Y-118500000D01*
X204600003Y-114000000D02*
G75*
G03*
X201399997Y-114000000I-1600003J0D01*
G01*
X201399997Y-114000000D02*
G75*
G03*
X204600003Y-114000000I1600003J0D01*
G01*
X93300000Y-61400000D02*
X198200000Y-61400000D01*
D12*
%TO.C,LED6*%
X130380000Y-92950000D02*
X130380000Y-95650000D01*
X130280000Y-95750000D02*
X127180000Y-95750000D01*
X130280000Y-92850000D02*
X127180000Y-92850000D01*
X127080000Y-95650000D02*
X127080000Y-92950000D01*
D13*
X130280000Y-95750000D02*
G75*
G03*
X130380000Y-95650000I1J99999D01*
G01*
X130380000Y-92950000D02*
G75*
G03*
X130280000Y-92850000I-99999J1D01*
G01*
X127080000Y-95650000D02*
G75*
G03*
X127180000Y-95750000I100000J0D01*
G01*
X127180000Y-92850000D02*
G75*
G03*
X127080000Y-92950000I0J-100000D01*
G01*
D12*
%TO.C,LED9*%
X111330000Y-112000000D02*
X111330000Y-114700000D01*
X111230000Y-114800000D02*
X108130000Y-114800000D01*
X111230000Y-111900000D02*
X108130000Y-111900000D01*
X108030000Y-114700000D02*
X108030000Y-112000000D01*
D13*
X111230000Y-114800000D02*
G75*
G03*
X111330000Y-114700000I1J99999D01*
G01*
X111330000Y-112000000D02*
G75*
G03*
X111230000Y-111900000I-99999J1D01*
G01*
X108030000Y-114700000D02*
G75*
G03*
X108130000Y-114800000I100000J0D01*
G01*
X108130000Y-111900000D02*
G75*
G03*
X108030000Y-112000000I0J-100000D01*
G01*
D12*
%TO.C,LED1*%
X111330000Y-73900000D02*
X111330000Y-76600000D01*
X111230000Y-76700000D02*
X108130000Y-76700000D01*
X111230000Y-73800000D02*
X108130000Y-73800000D01*
X108030000Y-76600000D02*
X108030000Y-73900000D01*
D13*
X111230000Y-76700000D02*
G75*
G03*
X111330000Y-76600000I1J99999D01*
G01*
X111330000Y-73900000D02*
G75*
G03*
X111230000Y-73800000I-99999J1D01*
G01*
X108030000Y-76600000D02*
G75*
G03*
X108130000Y-76700000I100000J0D01*
G01*
X108130000Y-73800000D02*
G75*
G03*
X108030000Y-73900000I0J-100000D01*
G01*
D12*
%TO.C,LED3*%
X149430000Y-73900000D02*
X149430000Y-76600000D01*
X149330000Y-76700000D02*
X146230000Y-76700000D01*
X149330000Y-73800000D02*
X146230000Y-73800000D01*
X146130000Y-76600000D02*
X146130000Y-73900000D01*
D13*
X149330000Y-76700000D02*
G75*
G03*
X149430000Y-76600000I1J99999D01*
G01*
X149430000Y-73900000D02*
G75*
G03*
X149330000Y-73800000I-99999J1D01*
G01*
X146130000Y-76600000D02*
G75*
G03*
X146230000Y-76700000I100000J0D01*
G01*
X146230000Y-73800000D02*
G75*
G03*
X146130000Y-73900000I0J-100000D01*
G01*
D12*
%TO.C,LED4*%
X168470000Y-73900000D02*
X168470000Y-76600000D01*
X168370000Y-76700000D02*
X165270000Y-76700000D01*
X168370000Y-73800000D02*
X165270000Y-73800000D01*
X165170000Y-76600000D02*
X165170000Y-73900000D01*
D13*
X168370000Y-76700000D02*
G75*
G03*
X168470000Y-76600000I1J99999D01*
G01*
X168470000Y-73900000D02*
G75*
G03*
X168370000Y-73800000I-99999J1D01*
G01*
X165170000Y-76600000D02*
G75*
G03*
X165270000Y-76700000I100000J0D01*
G01*
X165270000Y-73800000D02*
G75*
G03*
X165170000Y-73900000I0J-100000D01*
G01*
D12*
%TO.C,LED5*%
X111330000Y-92950000D02*
X111330000Y-95650000D01*
X111230000Y-95750000D02*
X108130000Y-95750000D01*
X111230000Y-92850000D02*
X108130000Y-92850000D01*
X108030000Y-95650000D02*
X108030000Y-92950000D01*
D13*
X111230000Y-95750000D02*
G75*
G03*
X111330000Y-95650000I1J99999D01*
G01*
X111330000Y-92950000D02*
G75*
G03*
X111230000Y-92850000I-99999J1D01*
G01*
X108030000Y-95650000D02*
G75*
G03*
X108130000Y-95750000I100000J0D01*
G01*
X108130000Y-92850000D02*
G75*
G03*
X108030000Y-92950000I0J-100000D01*
G01*
D12*
%TO.C,LED8*%
X168480000Y-92950000D02*
X168480000Y-95650000D01*
X168380000Y-95750000D02*
X165280000Y-95750000D01*
X168380000Y-92850000D02*
X165280000Y-92850000D01*
X165180000Y-95650000D02*
X165180000Y-92950000D01*
D13*
X168380000Y-95750000D02*
G75*
G03*
X168480000Y-95650000I1J99999D01*
G01*
X168480000Y-92950000D02*
G75*
G03*
X168380000Y-92850000I-99999J1D01*
G01*
X165180000Y-95650000D02*
G75*
G03*
X165280000Y-95750000I100000J0D01*
G01*
X165280000Y-92850000D02*
G75*
G03*
X165180000Y-92950000I0J-100000D01*
G01*
D12*
%TO.C,LED7*%
X149430000Y-92880000D02*
X149430000Y-95580000D01*
X149330000Y-95680000D02*
X146230000Y-95680000D01*
X149330000Y-92780000D02*
X146230000Y-92780000D01*
X146130000Y-95580000D02*
X146130000Y-92880000D01*
D13*
X149330000Y-95680000D02*
G75*
G03*
X149430000Y-95580000I1J99999D01*
G01*
X149430000Y-92880000D02*
G75*
G03*
X149330000Y-92780000I-99999J1D01*
G01*
X146130000Y-95580000D02*
G75*
G03*
X146230000Y-95680000I100000J0D01*
G01*
X146230000Y-92780000D02*
G75*
G03*
X146130000Y-92880000I0J-100000D01*
G01*
D12*
%TO.C,LED12*%
X168480000Y-111990000D02*
X168480000Y-114690000D01*
X168380000Y-114790000D02*
X165280000Y-114790000D01*
X168380000Y-111890000D02*
X165280000Y-111890000D01*
X165180000Y-114690000D02*
X165180000Y-111990000D01*
D13*
X168380000Y-114790000D02*
G75*
G03*
X168480000Y-114690000I1J99999D01*
G01*
X168480000Y-111990000D02*
G75*
G03*
X168380000Y-111890000I-99999J1D01*
G01*
X165180000Y-114690000D02*
G75*
G03*
X165280000Y-114790000I100000J0D01*
G01*
X165280000Y-111890000D02*
G75*
G03*
X165180000Y-111990000I0J-100000D01*
G01*
D12*
%TO.C,LED2*%
X130380000Y-73890000D02*
X130380000Y-76590000D01*
X130280000Y-76690000D02*
X127180000Y-76690000D01*
X130280000Y-73790000D02*
X127180000Y-73790000D01*
X127080000Y-76590000D02*
X127080000Y-73890000D01*
D13*
X130280000Y-76690000D02*
G75*
G03*
X130380000Y-76590000I1J99999D01*
G01*
X130380000Y-73890000D02*
G75*
G03*
X130280000Y-73790000I-99999J1D01*
G01*
X127080000Y-76590000D02*
G75*
G03*
X127180000Y-76690000I100000J0D01*
G01*
X127180000Y-73790000D02*
G75*
G03*
X127080000Y-73890000I0J-100000D01*
G01*
D12*
%TO.C,LED10*%
X130390000Y-112000000D02*
X130390000Y-114700000D01*
X130290000Y-114800000D02*
X127190000Y-114800000D01*
X130290000Y-111900000D02*
X127190000Y-111900000D01*
X127090000Y-114700000D02*
X127090000Y-112000000D01*
D13*
X130290000Y-114800000D02*
G75*
G03*
X130390000Y-114700000I1J99999D01*
G01*
X130390000Y-112000000D02*
G75*
G03*
X130290000Y-111900000I-99999J1D01*
G01*
X127090000Y-114700000D02*
G75*
G03*
X127190000Y-114800000I100000J0D01*
G01*
X127190000Y-111900000D02*
G75*
G03*
X127090000Y-112000000I0J-100000D01*
G01*
D12*
%TO.C,LED11*%
X149440000Y-111920000D02*
X149440000Y-114620000D01*
X149340000Y-114720000D02*
X146240000Y-114720000D01*
X149340000Y-111820000D02*
X146240000Y-111820000D01*
X146140000Y-114620000D02*
X146140000Y-111920000D01*
D13*
X149340000Y-114720000D02*
G75*
G03*
X149440000Y-114620000I1J99999D01*
G01*
X149440000Y-111920000D02*
G75*
G03*
X149340000Y-111820000I-99999J1D01*
G01*
X146140000Y-114620000D02*
G75*
G03*
X146240000Y-114720000I100000J0D01*
G01*
X146240000Y-111820000D02*
G75*
G03*
X146140000Y-111920000I0J-100000D01*
G01*
%TD*%
M02*
