%TF.GenerationSoftware,KiCad,Pcbnew,7.0.10*%
%TF.CreationDate,2026-02-14T21:30:48-08:00*%
%TF.ProjectId,12kempV2.1,31326b65-6d70-4563-922e-312e6b696361,rev?*%
%TF.SameCoordinates,Original*%
%TF.FileFunction,Legend,Top*%
%TF.FilePolarity,Positive*%
%FSLAX46Y46*%
G04 Gerber Fmt 4.6, Leading zero omitted, Abs format (unit mm)*
G04 Created by KiCad (PCBNEW 7.0.10) date 2026-02-14 21:30:48*
%MOMM*%
%LPD*%
G01*
G04 APERTURE LIST*
%ADD10C,0.300000*%
%ADD11C,0.125000*%
%ADD12C,0.150000*%
%ADD13C,0.127000*%
%ADD14C,0.200000*%
%ADD15C,0.120000*%
%ADD16C,0.508000*%
G04 APERTURE END LIST*
D10*
X182114034Y-87135828D02*
X181314034Y-87135828D01*
X181714034Y-87135828D02*
X181714034Y-85635828D01*
X181714034Y-85635828D02*
X181580701Y-85850114D01*
X181580701Y-85850114D02*
X181447368Y-85992971D01*
X181447368Y-85992971D02*
X181314034Y-86064400D01*
X182647367Y-85778685D02*
X182714034Y-85707257D01*
X182714034Y-85707257D02*
X182847367Y-85635828D01*
X182847367Y-85635828D02*
X183180701Y-85635828D01*
X183180701Y-85635828D02*
X183314034Y-85707257D01*
X183314034Y-85707257D02*
X183380701Y-85778685D01*
X183380701Y-85778685D02*
X183447367Y-85921542D01*
X183447367Y-85921542D02*
X183447367Y-86064400D01*
X183447367Y-86064400D02*
X183380701Y-86278685D01*
X183380701Y-86278685D02*
X182580701Y-87135828D01*
X182580701Y-87135828D02*
X183447367Y-87135828D01*
X184047367Y-87135828D02*
X184047367Y-85635828D01*
X184847367Y-87135828D02*
X184247367Y-86278685D01*
X184847367Y-85635828D02*
X184047367Y-86492971D01*
X185447367Y-86350114D02*
X185914034Y-86350114D01*
X186114034Y-87135828D02*
X185447367Y-87135828D01*
X185447367Y-87135828D02*
X185447367Y-85635828D01*
X185447367Y-85635828D02*
X186114034Y-85635828D01*
X186714034Y-87135828D02*
X186714034Y-85635828D01*
X186714034Y-85635828D02*
X187180701Y-86707257D01*
X187180701Y-86707257D02*
X187647367Y-85635828D01*
X187647367Y-85635828D02*
X187647367Y-87135828D01*
X188314034Y-87135828D02*
X188314034Y-85635828D01*
X188314034Y-85635828D02*
X188847367Y-85635828D01*
X188847367Y-85635828D02*
X188980701Y-85707257D01*
X188980701Y-85707257D02*
X189047367Y-85778685D01*
X189047367Y-85778685D02*
X189114034Y-85921542D01*
X189114034Y-85921542D02*
X189114034Y-86135828D01*
X189114034Y-86135828D02*
X189047367Y-86278685D01*
X189047367Y-86278685D02*
X188980701Y-86350114D01*
X188980701Y-86350114D02*
X188847367Y-86421542D01*
X188847367Y-86421542D02*
X188314034Y-86421542D01*
X190580701Y-85635828D02*
X191047368Y-87135828D01*
X191047368Y-87135828D02*
X191514034Y-85635828D01*
X191914034Y-85778685D02*
X191980701Y-85707257D01*
X191980701Y-85707257D02*
X192114034Y-85635828D01*
X192114034Y-85635828D02*
X192447368Y-85635828D01*
X192447368Y-85635828D02*
X192580701Y-85707257D01*
X192580701Y-85707257D02*
X192647368Y-85778685D01*
X192647368Y-85778685D02*
X192714034Y-85921542D01*
X192714034Y-85921542D02*
X192714034Y-86064400D01*
X192714034Y-86064400D02*
X192647368Y-86278685D01*
X192647368Y-86278685D02*
X191847368Y-87135828D01*
X191847368Y-87135828D02*
X192714034Y-87135828D01*
X193314034Y-86992971D02*
X193380701Y-87064400D01*
X193380701Y-87064400D02*
X193314034Y-87135828D01*
X193314034Y-87135828D02*
X193247367Y-87064400D01*
X193247367Y-87064400D02*
X193314034Y-86992971D01*
X193314034Y-86992971D02*
X193314034Y-87135828D01*
X194714034Y-87135828D02*
X193914034Y-87135828D01*
X194314034Y-87135828D02*
X194314034Y-85635828D01*
X194314034Y-85635828D02*
X194180701Y-85850114D01*
X194180701Y-85850114D02*
X194047368Y-85992971D01*
X194047368Y-85992971D02*
X193914034Y-86064400D01*
X181380701Y-89550828D02*
X181380701Y-88050828D01*
X181380701Y-88622257D02*
X181514034Y-88550828D01*
X181514034Y-88550828D02*
X181780701Y-88550828D01*
X181780701Y-88550828D02*
X181914034Y-88622257D01*
X181914034Y-88622257D02*
X181980701Y-88693685D01*
X181980701Y-88693685D02*
X182047368Y-88836542D01*
X182047368Y-88836542D02*
X182047368Y-89265114D01*
X182047368Y-89265114D02*
X181980701Y-89407971D01*
X181980701Y-89407971D02*
X181914034Y-89479400D01*
X181914034Y-89479400D02*
X181780701Y-89550828D01*
X181780701Y-89550828D02*
X181514034Y-89550828D01*
X181514034Y-89550828D02*
X181380701Y-89479400D01*
X182514035Y-88550828D02*
X182847368Y-89550828D01*
X183180701Y-88550828D02*
X182847368Y-89550828D01*
X182847368Y-89550828D02*
X182714035Y-89907971D01*
X182714035Y-89907971D02*
X182647368Y-89979400D01*
X182647368Y-89979400D02*
X182514035Y-90050828D01*
X185647369Y-88836542D02*
X185580702Y-88765114D01*
X185580702Y-88765114D02*
X185447369Y-88693685D01*
X185447369Y-88693685D02*
X185314035Y-88693685D01*
X185314035Y-88693685D02*
X185180702Y-88765114D01*
X185180702Y-88765114D02*
X185114035Y-88836542D01*
X185114035Y-88836542D02*
X185047369Y-88979400D01*
X185047369Y-88979400D02*
X185047369Y-89122257D01*
X185047369Y-89122257D02*
X185114035Y-89265114D01*
X185114035Y-89265114D02*
X185180702Y-89336542D01*
X185180702Y-89336542D02*
X185314035Y-89407971D01*
X185314035Y-89407971D02*
X185447369Y-89407971D01*
X185447369Y-89407971D02*
X185580702Y-89336542D01*
X185580702Y-89336542D02*
X185647369Y-89265114D01*
X185647369Y-88693685D02*
X185647369Y-89265114D01*
X185647369Y-89265114D02*
X185714035Y-89336542D01*
X185714035Y-89336542D02*
X185780702Y-89336542D01*
X185780702Y-89336542D02*
X185914035Y-89265114D01*
X185914035Y-89265114D02*
X185980702Y-89122257D01*
X185980702Y-89122257D02*
X185980702Y-88765114D01*
X185980702Y-88765114D02*
X185847369Y-88550828D01*
X185847369Y-88550828D02*
X185647369Y-88407971D01*
X185647369Y-88407971D02*
X185380702Y-88336542D01*
X185380702Y-88336542D02*
X185114035Y-88407971D01*
X185114035Y-88407971D02*
X184914035Y-88550828D01*
X184914035Y-88550828D02*
X184780702Y-88765114D01*
X184780702Y-88765114D02*
X184714035Y-89050828D01*
X184714035Y-89050828D02*
X184780702Y-89336542D01*
X184780702Y-89336542D02*
X184914035Y-89550828D01*
X184914035Y-89550828D02*
X185114035Y-89693685D01*
X185114035Y-89693685D02*
X185380702Y-89765114D01*
X185380702Y-89765114D02*
X185647369Y-89693685D01*
X185647369Y-89693685D02*
X185847369Y-89550828D01*
X186847369Y-88050828D02*
X187114035Y-88050828D01*
X187114035Y-88050828D02*
X187247369Y-88122257D01*
X187247369Y-88122257D02*
X187380702Y-88265114D01*
X187380702Y-88265114D02*
X187447369Y-88550828D01*
X187447369Y-88550828D02*
X187447369Y-89050828D01*
X187447369Y-89050828D02*
X187380702Y-89336542D01*
X187380702Y-89336542D02*
X187247369Y-89479400D01*
X187247369Y-89479400D02*
X187114035Y-89550828D01*
X187114035Y-89550828D02*
X186847369Y-89550828D01*
X186847369Y-89550828D02*
X186714035Y-89479400D01*
X186714035Y-89479400D02*
X186580702Y-89336542D01*
X186580702Y-89336542D02*
X186514035Y-89050828D01*
X186514035Y-89050828D02*
X186514035Y-88550828D01*
X186514035Y-88550828D02*
X186580702Y-88265114D01*
X186580702Y-88265114D02*
X186714035Y-88122257D01*
X186714035Y-88122257D02*
X186847369Y-88050828D01*
X188647369Y-89550828D02*
X188647369Y-88765114D01*
X188647369Y-88765114D02*
X188580702Y-88622257D01*
X188580702Y-88622257D02*
X188447369Y-88550828D01*
X188447369Y-88550828D02*
X188180702Y-88550828D01*
X188180702Y-88550828D02*
X188047369Y-88622257D01*
X188647369Y-89479400D02*
X188514036Y-89550828D01*
X188514036Y-89550828D02*
X188180702Y-89550828D01*
X188180702Y-89550828D02*
X188047369Y-89479400D01*
X188047369Y-89479400D02*
X187980702Y-89336542D01*
X187980702Y-89336542D02*
X187980702Y-89193685D01*
X187980702Y-89193685D02*
X188047369Y-89050828D01*
X188047369Y-89050828D02*
X188180702Y-88979400D01*
X188180702Y-88979400D02*
X188514036Y-88979400D01*
X188514036Y-88979400D02*
X188647369Y-88907971D01*
X189314036Y-89550828D02*
X189314036Y-88050828D01*
X189447369Y-88979400D02*
X189847369Y-89550828D01*
X189847369Y-88550828D02*
X189314036Y-89122257D01*
X190247369Y-88050828D02*
X191047369Y-88050828D01*
X190647369Y-89550828D02*
X190647369Y-88050828D01*
X191514036Y-89550828D02*
X191514036Y-88550828D01*
X191514036Y-88836542D02*
X191580703Y-88693685D01*
X191580703Y-88693685D02*
X191647369Y-88622257D01*
X191647369Y-88622257D02*
X191780703Y-88550828D01*
X191780703Y-88550828D02*
X191914036Y-88550828D01*
X192914036Y-89479400D02*
X192780703Y-89550828D01*
X192780703Y-89550828D02*
X192514036Y-89550828D01*
X192514036Y-89550828D02*
X192380703Y-89479400D01*
X192380703Y-89479400D02*
X192314036Y-89336542D01*
X192314036Y-89336542D02*
X192314036Y-88765114D01*
X192314036Y-88765114D02*
X192380703Y-88622257D01*
X192380703Y-88622257D02*
X192514036Y-88550828D01*
X192514036Y-88550828D02*
X192780703Y-88550828D01*
X192780703Y-88550828D02*
X192914036Y-88622257D01*
X192914036Y-88622257D02*
X192980703Y-88765114D01*
X192980703Y-88765114D02*
X192980703Y-88907971D01*
X192980703Y-88907971D02*
X192314036Y-89050828D01*
X194114036Y-89479400D02*
X193980703Y-89550828D01*
X193980703Y-89550828D02*
X193714036Y-89550828D01*
X193714036Y-89550828D02*
X193580703Y-89479400D01*
X193580703Y-89479400D02*
X193514036Y-89336542D01*
X193514036Y-89336542D02*
X193514036Y-88765114D01*
X193514036Y-88765114D02*
X193580703Y-88622257D01*
X193580703Y-88622257D02*
X193714036Y-88550828D01*
X193714036Y-88550828D02*
X193980703Y-88550828D01*
X193980703Y-88550828D02*
X194114036Y-88622257D01*
X194114036Y-88622257D02*
X194180703Y-88765114D01*
X194180703Y-88765114D02*
X194180703Y-88907971D01*
X194180703Y-88907971D02*
X193514036Y-89050828D01*
X194647370Y-88050828D02*
X194980703Y-89550828D01*
X194980703Y-89550828D02*
X195247370Y-88479400D01*
X195247370Y-88479400D02*
X195514036Y-89550828D01*
X195514036Y-89550828D02*
X195847370Y-88050828D01*
X197180703Y-89407971D02*
X197114036Y-89479400D01*
X197114036Y-89479400D02*
X196914036Y-89550828D01*
X196914036Y-89550828D02*
X196780703Y-89550828D01*
X196780703Y-89550828D02*
X196580703Y-89479400D01*
X196580703Y-89479400D02*
X196447370Y-89336542D01*
X196447370Y-89336542D02*
X196380703Y-89193685D01*
X196380703Y-89193685D02*
X196314036Y-88907971D01*
X196314036Y-88907971D02*
X196314036Y-88693685D01*
X196314036Y-88693685D02*
X196380703Y-88407971D01*
X196380703Y-88407971D02*
X196447370Y-88265114D01*
X196447370Y-88265114D02*
X196580703Y-88122257D01*
X196580703Y-88122257D02*
X196780703Y-88050828D01*
X196780703Y-88050828D02*
X196914036Y-88050828D01*
X196914036Y-88050828D02*
X197114036Y-88122257D01*
X197114036Y-88122257D02*
X197180703Y-88193685D01*
D11*
X181403664Y-90643976D02*
X181498902Y-90977309D01*
X181498902Y-90977309D02*
X181594140Y-90739214D01*
X181594140Y-90739214D02*
X181689378Y-90977309D01*
X181689378Y-90977309D02*
X181784616Y-90643976D01*
X182332236Y-90453500D02*
X181903665Y-91096357D01*
X182856046Y-90953500D02*
X182927474Y-90977309D01*
X182927474Y-90977309D02*
X183046522Y-90977309D01*
X183046522Y-90977309D02*
X183094141Y-90953500D01*
X183094141Y-90953500D02*
X183117950Y-90929690D01*
X183117950Y-90929690D02*
X183141760Y-90882071D01*
X183141760Y-90882071D02*
X183141760Y-90834452D01*
X183141760Y-90834452D02*
X183117950Y-90786833D01*
X183117950Y-90786833D02*
X183094141Y-90763023D01*
X183094141Y-90763023D02*
X183046522Y-90739214D01*
X183046522Y-90739214D02*
X182951284Y-90715404D01*
X182951284Y-90715404D02*
X182903665Y-90691595D01*
X182903665Y-90691595D02*
X182879855Y-90667785D01*
X182879855Y-90667785D02*
X182856046Y-90620166D01*
X182856046Y-90620166D02*
X182856046Y-90572547D01*
X182856046Y-90572547D02*
X182879855Y-90524928D01*
X182879855Y-90524928D02*
X182903665Y-90501119D01*
X182903665Y-90501119D02*
X182951284Y-90477309D01*
X182951284Y-90477309D02*
X183070331Y-90477309D01*
X183070331Y-90477309D02*
X183141760Y-90501119D01*
X183546521Y-90953500D02*
X183498902Y-90977309D01*
X183498902Y-90977309D02*
X183403664Y-90977309D01*
X183403664Y-90977309D02*
X183356045Y-90953500D01*
X183356045Y-90953500D02*
X183332236Y-90905880D01*
X183332236Y-90905880D02*
X183332236Y-90715404D01*
X183332236Y-90715404D02*
X183356045Y-90667785D01*
X183356045Y-90667785D02*
X183403664Y-90643976D01*
X183403664Y-90643976D02*
X183498902Y-90643976D01*
X183498902Y-90643976D02*
X183546521Y-90667785D01*
X183546521Y-90667785D02*
X183570331Y-90715404D01*
X183570331Y-90715404D02*
X183570331Y-90763023D01*
X183570331Y-90763023D02*
X183332236Y-90810642D01*
X183975092Y-90953500D02*
X183927473Y-90977309D01*
X183927473Y-90977309D02*
X183832235Y-90977309D01*
X183832235Y-90977309D02*
X183784616Y-90953500D01*
X183784616Y-90953500D02*
X183760807Y-90905880D01*
X183760807Y-90905880D02*
X183760807Y-90715404D01*
X183760807Y-90715404D02*
X183784616Y-90667785D01*
X183784616Y-90667785D02*
X183832235Y-90643976D01*
X183832235Y-90643976D02*
X183927473Y-90643976D01*
X183927473Y-90643976D02*
X183975092Y-90667785D01*
X183975092Y-90667785D02*
X183998902Y-90715404D01*
X183998902Y-90715404D02*
X183998902Y-90763023D01*
X183998902Y-90763023D02*
X183760807Y-90810642D01*
X184403663Y-90953500D02*
X184356044Y-90977309D01*
X184356044Y-90977309D02*
X184260806Y-90977309D01*
X184260806Y-90977309D02*
X184213187Y-90953500D01*
X184213187Y-90953500D02*
X184189378Y-90905880D01*
X184189378Y-90905880D02*
X184189378Y-90715404D01*
X184189378Y-90715404D02*
X184213187Y-90667785D01*
X184213187Y-90667785D02*
X184260806Y-90643976D01*
X184260806Y-90643976D02*
X184356044Y-90643976D01*
X184356044Y-90643976D02*
X184403663Y-90667785D01*
X184403663Y-90667785D02*
X184427473Y-90715404D01*
X184427473Y-90715404D02*
X184427473Y-90763023D01*
X184427473Y-90763023D02*
X184189378Y-90810642D01*
X184856044Y-90977309D02*
X184856044Y-90477309D01*
X184856044Y-90953500D02*
X184808425Y-90977309D01*
X184808425Y-90977309D02*
X184713187Y-90977309D01*
X184713187Y-90977309D02*
X184665568Y-90953500D01*
X184665568Y-90953500D02*
X184641758Y-90929690D01*
X184641758Y-90929690D02*
X184617949Y-90882071D01*
X184617949Y-90882071D02*
X184617949Y-90739214D01*
X184617949Y-90739214D02*
X184641758Y-90691595D01*
X184641758Y-90691595D02*
X184665568Y-90667785D01*
X184665568Y-90667785D02*
X184713187Y-90643976D01*
X184713187Y-90643976D02*
X184808425Y-90643976D01*
X184808425Y-90643976D02*
X184856044Y-90667785D01*
X185451282Y-90953500D02*
X185522710Y-90977309D01*
X185522710Y-90977309D02*
X185641758Y-90977309D01*
X185641758Y-90977309D02*
X185689377Y-90953500D01*
X185689377Y-90953500D02*
X185713186Y-90929690D01*
X185713186Y-90929690D02*
X185736996Y-90882071D01*
X185736996Y-90882071D02*
X185736996Y-90834452D01*
X185736996Y-90834452D02*
X185713186Y-90786833D01*
X185713186Y-90786833D02*
X185689377Y-90763023D01*
X185689377Y-90763023D02*
X185641758Y-90739214D01*
X185641758Y-90739214D02*
X185546520Y-90715404D01*
X185546520Y-90715404D02*
X185498901Y-90691595D01*
X185498901Y-90691595D02*
X185475091Y-90667785D01*
X185475091Y-90667785D02*
X185451282Y-90620166D01*
X185451282Y-90620166D02*
X185451282Y-90572547D01*
X185451282Y-90572547D02*
X185475091Y-90524928D01*
X185475091Y-90524928D02*
X185498901Y-90501119D01*
X185498901Y-90501119D02*
X185546520Y-90477309D01*
X185546520Y-90477309D02*
X185665567Y-90477309D01*
X185665567Y-90477309D02*
X185736996Y-90501119D01*
X185879853Y-90643976D02*
X186070329Y-90643976D01*
X185951281Y-90477309D02*
X185951281Y-90905880D01*
X185951281Y-90905880D02*
X185975091Y-90953500D01*
X185975091Y-90953500D02*
X186022710Y-90977309D01*
X186022710Y-90977309D02*
X186070329Y-90977309D01*
X186451281Y-90643976D02*
X186451281Y-90977309D01*
X186236995Y-90643976D02*
X186236995Y-90905880D01*
X186236995Y-90905880D02*
X186260805Y-90953500D01*
X186260805Y-90953500D02*
X186308424Y-90977309D01*
X186308424Y-90977309D02*
X186379852Y-90977309D01*
X186379852Y-90977309D02*
X186427471Y-90953500D01*
X186427471Y-90953500D02*
X186451281Y-90929690D01*
X186903662Y-90977309D02*
X186903662Y-90477309D01*
X186903662Y-90953500D02*
X186856043Y-90977309D01*
X186856043Y-90977309D02*
X186760805Y-90977309D01*
X186760805Y-90977309D02*
X186713186Y-90953500D01*
X186713186Y-90953500D02*
X186689376Y-90929690D01*
X186689376Y-90929690D02*
X186665567Y-90882071D01*
X186665567Y-90882071D02*
X186665567Y-90739214D01*
X186665567Y-90739214D02*
X186689376Y-90691595D01*
X186689376Y-90691595D02*
X186713186Y-90667785D01*
X186713186Y-90667785D02*
X186760805Y-90643976D01*
X186760805Y-90643976D02*
X186856043Y-90643976D01*
X186856043Y-90643976D02*
X186903662Y-90667785D01*
X187141757Y-90977309D02*
X187141757Y-90643976D01*
X187141757Y-90477309D02*
X187117948Y-90501119D01*
X187117948Y-90501119D02*
X187141757Y-90524928D01*
X187141757Y-90524928D02*
X187165567Y-90501119D01*
X187165567Y-90501119D02*
X187141757Y-90477309D01*
X187141757Y-90477309D02*
X187141757Y-90524928D01*
X187451281Y-90977309D02*
X187403662Y-90953500D01*
X187403662Y-90953500D02*
X187379852Y-90929690D01*
X187379852Y-90929690D02*
X187356043Y-90882071D01*
X187356043Y-90882071D02*
X187356043Y-90739214D01*
X187356043Y-90739214D02*
X187379852Y-90691595D01*
X187379852Y-90691595D02*
X187403662Y-90667785D01*
X187403662Y-90667785D02*
X187451281Y-90643976D01*
X187451281Y-90643976D02*
X187522709Y-90643976D01*
X187522709Y-90643976D02*
X187570328Y-90667785D01*
X187570328Y-90667785D02*
X187594138Y-90691595D01*
X187594138Y-90691595D02*
X187617947Y-90739214D01*
X187617947Y-90739214D02*
X187617947Y-90882071D01*
X187617947Y-90882071D02*
X187594138Y-90929690D01*
X187594138Y-90929690D02*
X187570328Y-90953500D01*
X187570328Y-90953500D02*
X187522709Y-90977309D01*
X187522709Y-90977309D02*
X187451281Y-90977309D01*
X188165566Y-90477309D02*
X188498899Y-90977309D01*
X188498899Y-90477309D02*
X188165566Y-90977309D01*
X188689375Y-90977309D02*
X188689375Y-90477309D01*
X188903661Y-90834452D02*
X189141756Y-90834452D01*
X188856042Y-90977309D02*
X189022708Y-90477309D01*
X189022708Y-90477309D02*
X189189375Y-90977309D01*
X189451279Y-90477309D02*
X189546517Y-90477309D01*
X189546517Y-90477309D02*
X189594136Y-90501119D01*
X189594136Y-90501119D02*
X189641755Y-90548738D01*
X189641755Y-90548738D02*
X189665565Y-90643976D01*
X189665565Y-90643976D02*
X189665565Y-90810642D01*
X189665565Y-90810642D02*
X189641755Y-90905880D01*
X189641755Y-90905880D02*
X189594136Y-90953500D01*
X189594136Y-90953500D02*
X189546517Y-90977309D01*
X189546517Y-90977309D02*
X189451279Y-90977309D01*
X189451279Y-90977309D02*
X189403660Y-90953500D01*
X189403660Y-90953500D02*
X189356041Y-90905880D01*
X189356041Y-90905880D02*
X189332232Y-90810642D01*
X189332232Y-90810642D02*
X189332232Y-90643976D01*
X189332232Y-90643976D02*
X189356041Y-90548738D01*
X189356041Y-90548738D02*
X189403660Y-90501119D01*
X189403660Y-90501119D02*
X189451279Y-90477309D01*
X190546517Y-90977309D02*
X190379851Y-90739214D01*
X190260803Y-90977309D02*
X190260803Y-90477309D01*
X190260803Y-90477309D02*
X190451279Y-90477309D01*
X190451279Y-90477309D02*
X190498898Y-90501119D01*
X190498898Y-90501119D02*
X190522708Y-90524928D01*
X190522708Y-90524928D02*
X190546517Y-90572547D01*
X190546517Y-90572547D02*
X190546517Y-90643976D01*
X190546517Y-90643976D02*
X190522708Y-90691595D01*
X190522708Y-90691595D02*
X190498898Y-90715404D01*
X190498898Y-90715404D02*
X190451279Y-90739214D01*
X190451279Y-90739214D02*
X190260803Y-90739214D01*
X190760803Y-90977309D02*
X190760803Y-90477309D01*
X190760803Y-90477309D02*
X190951279Y-90477309D01*
X190951279Y-90477309D02*
X190998898Y-90501119D01*
X190998898Y-90501119D02*
X191022708Y-90524928D01*
X191022708Y-90524928D02*
X191046517Y-90572547D01*
X191046517Y-90572547D02*
X191046517Y-90643976D01*
X191046517Y-90643976D02*
X191022708Y-90691595D01*
X191022708Y-90691595D02*
X190998898Y-90715404D01*
X190998898Y-90715404D02*
X190951279Y-90739214D01*
X190951279Y-90739214D02*
X190760803Y-90739214D01*
X191236994Y-90524928D02*
X191260803Y-90501119D01*
X191260803Y-90501119D02*
X191308422Y-90477309D01*
X191308422Y-90477309D02*
X191427470Y-90477309D01*
X191427470Y-90477309D02*
X191475089Y-90501119D01*
X191475089Y-90501119D02*
X191498898Y-90524928D01*
X191498898Y-90524928D02*
X191522708Y-90572547D01*
X191522708Y-90572547D02*
X191522708Y-90620166D01*
X191522708Y-90620166D02*
X191498898Y-90691595D01*
X191498898Y-90691595D02*
X191213184Y-90977309D01*
X191213184Y-90977309D02*
X191522708Y-90977309D01*
X191832231Y-90477309D02*
X191879850Y-90477309D01*
X191879850Y-90477309D02*
X191927469Y-90501119D01*
X191927469Y-90501119D02*
X191951279Y-90524928D01*
X191951279Y-90524928D02*
X191975088Y-90572547D01*
X191975088Y-90572547D02*
X191998898Y-90667785D01*
X191998898Y-90667785D02*
X191998898Y-90786833D01*
X191998898Y-90786833D02*
X191975088Y-90882071D01*
X191975088Y-90882071D02*
X191951279Y-90929690D01*
X191951279Y-90929690D02*
X191927469Y-90953500D01*
X191927469Y-90953500D02*
X191879850Y-90977309D01*
X191879850Y-90977309D02*
X191832231Y-90977309D01*
X191832231Y-90977309D02*
X191784612Y-90953500D01*
X191784612Y-90953500D02*
X191760803Y-90929690D01*
X191760803Y-90929690D02*
X191736993Y-90882071D01*
X191736993Y-90882071D02*
X191713184Y-90786833D01*
X191713184Y-90786833D02*
X191713184Y-90667785D01*
X191713184Y-90667785D02*
X191736993Y-90572547D01*
X191736993Y-90572547D02*
X191760803Y-90524928D01*
X191760803Y-90524928D02*
X191784612Y-90501119D01*
X191784612Y-90501119D02*
X191832231Y-90477309D01*
X192427469Y-90643976D02*
X192427469Y-90977309D01*
X192308421Y-90453500D02*
X192189374Y-90810642D01*
X192189374Y-90810642D02*
X192498897Y-90810642D01*
X192784611Y-90477309D02*
X192832230Y-90477309D01*
X192832230Y-90477309D02*
X192879849Y-90501119D01*
X192879849Y-90501119D02*
X192903659Y-90524928D01*
X192903659Y-90524928D02*
X192927468Y-90572547D01*
X192927468Y-90572547D02*
X192951278Y-90667785D01*
X192951278Y-90667785D02*
X192951278Y-90786833D01*
X192951278Y-90786833D02*
X192927468Y-90882071D01*
X192927468Y-90882071D02*
X192903659Y-90929690D01*
X192903659Y-90929690D02*
X192879849Y-90953500D01*
X192879849Y-90953500D02*
X192832230Y-90977309D01*
X192832230Y-90977309D02*
X192784611Y-90977309D01*
X192784611Y-90977309D02*
X192736992Y-90953500D01*
X192736992Y-90953500D02*
X192713183Y-90929690D01*
X192713183Y-90929690D02*
X192689373Y-90882071D01*
X192689373Y-90882071D02*
X192665564Y-90786833D01*
X192665564Y-90786833D02*
X192665564Y-90667785D01*
X192665564Y-90667785D02*
X192689373Y-90572547D01*
X192689373Y-90572547D02*
X192713183Y-90524928D01*
X192713183Y-90524928D02*
X192736992Y-90501119D01*
X192736992Y-90501119D02*
X192784611Y-90477309D01*
X181665569Y-91448976D02*
X181665569Y-91782309D01*
X181546521Y-91258500D02*
X181427474Y-91615642D01*
X181427474Y-91615642D02*
X181736997Y-91615642D01*
X181879854Y-91782309D02*
X182141759Y-91448976D01*
X181879854Y-91448976D02*
X182141759Y-91782309D01*
X182284616Y-91282309D02*
X182594140Y-91282309D01*
X182594140Y-91282309D02*
X182427473Y-91472785D01*
X182427473Y-91472785D02*
X182498902Y-91472785D01*
X182498902Y-91472785D02*
X182546521Y-91496595D01*
X182546521Y-91496595D02*
X182570330Y-91520404D01*
X182570330Y-91520404D02*
X182594140Y-91568023D01*
X182594140Y-91568023D02*
X182594140Y-91687071D01*
X182594140Y-91687071D02*
X182570330Y-91734690D01*
X182570330Y-91734690D02*
X182546521Y-91758500D01*
X182546521Y-91758500D02*
X182498902Y-91782309D01*
X182498902Y-91782309D02*
X182356045Y-91782309D01*
X182356045Y-91782309D02*
X182308426Y-91758500D01*
X182308426Y-91758500D02*
X182284616Y-91734690D01*
X183189377Y-91782309D02*
X183189377Y-91282309D01*
X183475091Y-91782309D02*
X183260806Y-91496595D01*
X183475091Y-91282309D02*
X183189377Y-91568023D01*
X183879853Y-91758500D02*
X183832234Y-91782309D01*
X183832234Y-91782309D02*
X183736996Y-91782309D01*
X183736996Y-91782309D02*
X183689377Y-91758500D01*
X183689377Y-91758500D02*
X183665568Y-91710880D01*
X183665568Y-91710880D02*
X183665568Y-91520404D01*
X183665568Y-91520404D02*
X183689377Y-91472785D01*
X183689377Y-91472785D02*
X183736996Y-91448976D01*
X183736996Y-91448976D02*
X183832234Y-91448976D01*
X183832234Y-91448976D02*
X183879853Y-91472785D01*
X183879853Y-91472785D02*
X183903663Y-91520404D01*
X183903663Y-91520404D02*
X183903663Y-91568023D01*
X183903663Y-91568023D02*
X183665568Y-91615642D01*
X184070329Y-91448976D02*
X184189377Y-91782309D01*
X184308424Y-91448976D02*
X184189377Y-91782309D01*
X184189377Y-91782309D02*
X184141758Y-91901357D01*
X184141758Y-91901357D02*
X184117948Y-91925166D01*
X184117948Y-91925166D02*
X184070329Y-91948976D01*
X184879852Y-91782309D02*
X184879852Y-91282309D01*
X184879852Y-91282309D02*
X185046519Y-91639452D01*
X185046519Y-91639452D02*
X185213185Y-91282309D01*
X185213185Y-91282309D02*
X185213185Y-91782309D01*
X185665567Y-91782309D02*
X185665567Y-91520404D01*
X185665567Y-91520404D02*
X185641757Y-91472785D01*
X185641757Y-91472785D02*
X185594138Y-91448976D01*
X185594138Y-91448976D02*
X185498900Y-91448976D01*
X185498900Y-91448976D02*
X185451281Y-91472785D01*
X185665567Y-91758500D02*
X185617948Y-91782309D01*
X185617948Y-91782309D02*
X185498900Y-91782309D01*
X185498900Y-91782309D02*
X185451281Y-91758500D01*
X185451281Y-91758500D02*
X185427472Y-91710880D01*
X185427472Y-91710880D02*
X185427472Y-91663261D01*
X185427472Y-91663261D02*
X185451281Y-91615642D01*
X185451281Y-91615642D02*
X185498900Y-91591833D01*
X185498900Y-91591833D02*
X185617948Y-91591833D01*
X185617948Y-91591833D02*
X185665567Y-91568023D01*
X185832234Y-91448976D02*
X186022710Y-91448976D01*
X185903662Y-91282309D02*
X185903662Y-91710880D01*
X185903662Y-91710880D02*
X185927472Y-91758500D01*
X185927472Y-91758500D02*
X185975091Y-91782309D01*
X185975091Y-91782309D02*
X186022710Y-91782309D01*
X186189376Y-91782309D02*
X186189376Y-91448976D01*
X186189376Y-91544214D02*
X186213186Y-91496595D01*
X186213186Y-91496595D02*
X186236995Y-91472785D01*
X186236995Y-91472785D02*
X186284614Y-91448976D01*
X186284614Y-91448976D02*
X186332233Y-91448976D01*
X186498900Y-91782309D02*
X186498900Y-91448976D01*
X186498900Y-91282309D02*
X186475091Y-91306119D01*
X186475091Y-91306119D02*
X186498900Y-91329928D01*
X186498900Y-91329928D02*
X186522710Y-91306119D01*
X186522710Y-91306119D02*
X186498900Y-91282309D01*
X186498900Y-91282309D02*
X186498900Y-91329928D01*
X186689376Y-91782309D02*
X186951281Y-91448976D01*
X186689376Y-91448976D02*
X186951281Y-91782309D01*
X187641757Y-91948976D02*
X187641757Y-91234690D01*
X188665565Y-91782309D02*
X188498899Y-91544214D01*
X188379851Y-91782309D02*
X188379851Y-91282309D01*
X188379851Y-91282309D02*
X188570327Y-91282309D01*
X188570327Y-91282309D02*
X188617946Y-91306119D01*
X188617946Y-91306119D02*
X188641756Y-91329928D01*
X188641756Y-91329928D02*
X188665565Y-91377547D01*
X188665565Y-91377547D02*
X188665565Y-91448976D01*
X188665565Y-91448976D02*
X188641756Y-91496595D01*
X188641756Y-91496595D02*
X188617946Y-91520404D01*
X188617946Y-91520404D02*
X188570327Y-91544214D01*
X188570327Y-91544214D02*
X188379851Y-91544214D01*
X188951280Y-91782309D02*
X188903661Y-91758500D01*
X188903661Y-91758500D02*
X188879851Y-91734690D01*
X188879851Y-91734690D02*
X188856042Y-91687071D01*
X188856042Y-91687071D02*
X188856042Y-91544214D01*
X188856042Y-91544214D02*
X188879851Y-91496595D01*
X188879851Y-91496595D02*
X188903661Y-91472785D01*
X188903661Y-91472785D02*
X188951280Y-91448976D01*
X188951280Y-91448976D02*
X189022708Y-91448976D01*
X189022708Y-91448976D02*
X189070327Y-91472785D01*
X189070327Y-91472785D02*
X189094137Y-91496595D01*
X189094137Y-91496595D02*
X189117946Y-91544214D01*
X189117946Y-91544214D02*
X189117946Y-91687071D01*
X189117946Y-91687071D02*
X189094137Y-91734690D01*
X189094137Y-91734690D02*
X189070327Y-91758500D01*
X189070327Y-91758500D02*
X189022708Y-91782309D01*
X189022708Y-91782309D02*
X188951280Y-91782309D01*
X189260804Y-91448976D02*
X189451280Y-91448976D01*
X189332232Y-91282309D02*
X189332232Y-91710880D01*
X189332232Y-91710880D02*
X189356042Y-91758500D01*
X189356042Y-91758500D02*
X189403661Y-91782309D01*
X189403661Y-91782309D02*
X189451280Y-91782309D01*
X189832232Y-91782309D02*
X189832232Y-91520404D01*
X189832232Y-91520404D02*
X189808422Y-91472785D01*
X189808422Y-91472785D02*
X189760803Y-91448976D01*
X189760803Y-91448976D02*
X189665565Y-91448976D01*
X189665565Y-91448976D02*
X189617946Y-91472785D01*
X189832232Y-91758500D02*
X189784613Y-91782309D01*
X189784613Y-91782309D02*
X189665565Y-91782309D01*
X189665565Y-91782309D02*
X189617946Y-91758500D01*
X189617946Y-91758500D02*
X189594137Y-91710880D01*
X189594137Y-91710880D02*
X189594137Y-91663261D01*
X189594137Y-91663261D02*
X189617946Y-91615642D01*
X189617946Y-91615642D02*
X189665565Y-91591833D01*
X189665565Y-91591833D02*
X189784613Y-91591833D01*
X189784613Y-91591833D02*
X189832232Y-91568023D01*
X190070327Y-91782309D02*
X190070327Y-91448976D01*
X190070327Y-91544214D02*
X190094137Y-91496595D01*
X190094137Y-91496595D02*
X190117946Y-91472785D01*
X190117946Y-91472785D02*
X190165565Y-91448976D01*
X190165565Y-91448976D02*
X190213184Y-91448976D01*
X190332232Y-91448976D02*
X190451280Y-91782309D01*
X190570327Y-91448976D02*
X190451280Y-91782309D01*
X190451280Y-91782309D02*
X190403661Y-91901357D01*
X190403661Y-91901357D02*
X190379851Y-91925166D01*
X190379851Y-91925166D02*
X190332232Y-91948976D01*
X191141755Y-91520404D02*
X191308422Y-91520404D01*
X191379850Y-91782309D02*
X191141755Y-91782309D01*
X191141755Y-91782309D02*
X191141755Y-91282309D01*
X191141755Y-91282309D02*
X191379850Y-91282309D01*
X191594136Y-91448976D02*
X191594136Y-91782309D01*
X191594136Y-91496595D02*
X191617946Y-91472785D01*
X191617946Y-91472785D02*
X191665565Y-91448976D01*
X191665565Y-91448976D02*
X191736993Y-91448976D01*
X191736993Y-91448976D02*
X191784612Y-91472785D01*
X191784612Y-91472785D02*
X191808422Y-91520404D01*
X191808422Y-91520404D02*
X191808422Y-91782309D01*
X192260803Y-91758500D02*
X192213184Y-91782309D01*
X192213184Y-91782309D02*
X192117946Y-91782309D01*
X192117946Y-91782309D02*
X192070327Y-91758500D01*
X192070327Y-91758500D02*
X192046517Y-91734690D01*
X192046517Y-91734690D02*
X192022708Y-91687071D01*
X192022708Y-91687071D02*
X192022708Y-91544214D01*
X192022708Y-91544214D02*
X192046517Y-91496595D01*
X192046517Y-91496595D02*
X192070327Y-91472785D01*
X192070327Y-91472785D02*
X192117946Y-91448976D01*
X192117946Y-91448976D02*
X192213184Y-91448976D01*
X192213184Y-91448976D02*
X192260803Y-91472785D01*
X192546517Y-91782309D02*
X192498898Y-91758500D01*
X192498898Y-91758500D02*
X192475088Y-91734690D01*
X192475088Y-91734690D02*
X192451279Y-91687071D01*
X192451279Y-91687071D02*
X192451279Y-91544214D01*
X192451279Y-91544214D02*
X192475088Y-91496595D01*
X192475088Y-91496595D02*
X192498898Y-91472785D01*
X192498898Y-91472785D02*
X192546517Y-91448976D01*
X192546517Y-91448976D02*
X192617945Y-91448976D01*
X192617945Y-91448976D02*
X192665564Y-91472785D01*
X192665564Y-91472785D02*
X192689374Y-91496595D01*
X192689374Y-91496595D02*
X192713183Y-91544214D01*
X192713183Y-91544214D02*
X192713183Y-91687071D01*
X192713183Y-91687071D02*
X192689374Y-91734690D01*
X192689374Y-91734690D02*
X192665564Y-91758500D01*
X192665564Y-91758500D02*
X192617945Y-91782309D01*
X192617945Y-91782309D02*
X192546517Y-91782309D01*
X193141755Y-91782309D02*
X193141755Y-91282309D01*
X193141755Y-91758500D02*
X193094136Y-91782309D01*
X193094136Y-91782309D02*
X192998898Y-91782309D01*
X192998898Y-91782309D02*
X192951279Y-91758500D01*
X192951279Y-91758500D02*
X192927469Y-91734690D01*
X192927469Y-91734690D02*
X192903660Y-91687071D01*
X192903660Y-91687071D02*
X192903660Y-91544214D01*
X192903660Y-91544214D02*
X192927469Y-91496595D01*
X192927469Y-91496595D02*
X192951279Y-91472785D01*
X192951279Y-91472785D02*
X192998898Y-91448976D01*
X192998898Y-91448976D02*
X193094136Y-91448976D01*
X193094136Y-91448976D02*
X193141755Y-91472785D01*
X193570326Y-91758500D02*
X193522707Y-91782309D01*
X193522707Y-91782309D02*
X193427469Y-91782309D01*
X193427469Y-91782309D02*
X193379850Y-91758500D01*
X193379850Y-91758500D02*
X193356041Y-91710880D01*
X193356041Y-91710880D02*
X193356041Y-91520404D01*
X193356041Y-91520404D02*
X193379850Y-91472785D01*
X193379850Y-91472785D02*
X193427469Y-91448976D01*
X193427469Y-91448976D02*
X193522707Y-91448976D01*
X193522707Y-91448976D02*
X193570326Y-91472785D01*
X193570326Y-91472785D02*
X193594136Y-91520404D01*
X193594136Y-91520404D02*
X193594136Y-91568023D01*
X193594136Y-91568023D02*
X193356041Y-91615642D01*
X193808421Y-91782309D02*
X193808421Y-91448976D01*
X193808421Y-91544214D02*
X193832231Y-91496595D01*
X193832231Y-91496595D02*
X193856040Y-91472785D01*
X193856040Y-91472785D02*
X193903659Y-91448976D01*
X193903659Y-91448976D02*
X193951278Y-91448976D01*
X194617945Y-91948976D02*
X194617945Y-91234690D01*
X195332230Y-91639452D02*
X195570325Y-91639452D01*
X195284611Y-91782309D02*
X195451277Y-91282309D01*
X195451277Y-91282309D02*
X195617944Y-91782309D01*
X195998896Y-91782309D02*
X195998896Y-91282309D01*
X195998896Y-91758500D02*
X195951277Y-91782309D01*
X195951277Y-91782309D02*
X195856039Y-91782309D01*
X195856039Y-91782309D02*
X195808420Y-91758500D01*
X195808420Y-91758500D02*
X195784610Y-91734690D01*
X195784610Y-91734690D02*
X195760801Y-91687071D01*
X195760801Y-91687071D02*
X195760801Y-91544214D01*
X195760801Y-91544214D02*
X195784610Y-91496595D01*
X195784610Y-91496595D02*
X195808420Y-91472785D01*
X195808420Y-91472785D02*
X195856039Y-91448976D01*
X195856039Y-91448976D02*
X195951277Y-91448976D01*
X195951277Y-91448976D02*
X195998896Y-91472785D01*
X196451277Y-91782309D02*
X196451277Y-91282309D01*
X196451277Y-91758500D02*
X196403658Y-91782309D01*
X196403658Y-91782309D02*
X196308420Y-91782309D01*
X196308420Y-91782309D02*
X196260801Y-91758500D01*
X196260801Y-91758500D02*
X196236991Y-91734690D01*
X196236991Y-91734690D02*
X196213182Y-91687071D01*
X196213182Y-91687071D02*
X196213182Y-91544214D01*
X196213182Y-91544214D02*
X196236991Y-91496595D01*
X196236991Y-91496595D02*
X196260801Y-91472785D01*
X196260801Y-91472785D02*
X196308420Y-91448976D01*
X196308420Y-91448976D02*
X196403658Y-91448976D01*
X196403658Y-91448976D02*
X196451277Y-91472785D01*
X196689372Y-91782309D02*
X196689372Y-91448976D01*
X196689372Y-91544214D02*
X196713182Y-91496595D01*
X196713182Y-91496595D02*
X196736991Y-91472785D01*
X196736991Y-91472785D02*
X196784610Y-91448976D01*
X196784610Y-91448976D02*
X196832229Y-91448976D01*
X196998896Y-91734690D02*
X197022706Y-91758500D01*
X197022706Y-91758500D02*
X196998896Y-91782309D01*
X196998896Y-91782309D02*
X196975087Y-91758500D01*
X196975087Y-91758500D02*
X196998896Y-91734690D01*
X196998896Y-91734690D02*
X196998896Y-91782309D01*
X197856038Y-91782309D02*
X197617943Y-91782309D01*
X197617943Y-91782309D02*
X197617943Y-91282309D01*
X198022705Y-91520404D02*
X198189372Y-91520404D01*
X198260800Y-91782309D02*
X198022705Y-91782309D01*
X198022705Y-91782309D02*
X198022705Y-91282309D01*
X198022705Y-91282309D02*
X198260800Y-91282309D01*
X198475086Y-91782309D02*
X198475086Y-91282309D01*
X198475086Y-91282309D02*
X198594134Y-91282309D01*
X198594134Y-91282309D02*
X198665562Y-91306119D01*
X198665562Y-91306119D02*
X198713181Y-91353738D01*
X198713181Y-91353738D02*
X198736991Y-91401357D01*
X198736991Y-91401357D02*
X198760800Y-91496595D01*
X198760800Y-91496595D02*
X198760800Y-91568023D01*
X198760800Y-91568023D02*
X198736991Y-91663261D01*
X198736991Y-91663261D02*
X198713181Y-91710880D01*
X198713181Y-91710880D02*
X198665562Y-91758500D01*
X198665562Y-91758500D02*
X198594134Y-91782309D01*
X198594134Y-91782309D02*
X198475086Y-91782309D01*
X198951277Y-91758500D02*
X198998896Y-91782309D01*
X198998896Y-91782309D02*
X199094134Y-91782309D01*
X199094134Y-91782309D02*
X199141753Y-91758500D01*
X199141753Y-91758500D02*
X199165562Y-91710880D01*
X199165562Y-91710880D02*
X199165562Y-91687071D01*
X199165562Y-91687071D02*
X199141753Y-91639452D01*
X199141753Y-91639452D02*
X199094134Y-91615642D01*
X199094134Y-91615642D02*
X199022705Y-91615642D01*
X199022705Y-91615642D02*
X198975086Y-91591833D01*
X198975086Y-91591833D02*
X198951277Y-91544214D01*
X198951277Y-91544214D02*
X198951277Y-91520404D01*
X198951277Y-91520404D02*
X198975086Y-91472785D01*
X198975086Y-91472785D02*
X199022705Y-91448976D01*
X199022705Y-91448976D02*
X199094134Y-91448976D01*
X199094134Y-91448976D02*
X199141753Y-91472785D01*
D12*
X183581976Y-57948295D02*
X183581976Y-58595914D01*
X183581976Y-58595914D02*
X183620071Y-58672104D01*
X183620071Y-58672104D02*
X183658166Y-58710200D01*
X183658166Y-58710200D02*
X183734357Y-58748295D01*
X183734357Y-58748295D02*
X183886738Y-58748295D01*
X183886738Y-58748295D02*
X183962928Y-58710200D01*
X183962928Y-58710200D02*
X184001023Y-58672104D01*
X184001023Y-58672104D02*
X184039119Y-58595914D01*
X184039119Y-58595914D02*
X184039119Y-57948295D01*
X184839118Y-58748295D02*
X184381975Y-58748295D01*
X184610547Y-58748295D02*
X184610547Y-57948295D01*
X184610547Y-57948295D02*
X184534356Y-58062580D01*
X184534356Y-58062580D02*
X184458166Y-58138771D01*
X184458166Y-58138771D02*
X184381975Y-58176866D01*
X185907200Y-107559523D02*
X185954819Y-107416666D01*
X185954819Y-107416666D02*
X185954819Y-107178571D01*
X185954819Y-107178571D02*
X185907200Y-107083333D01*
X185907200Y-107083333D02*
X185859580Y-107035714D01*
X185859580Y-107035714D02*
X185764342Y-106988095D01*
X185764342Y-106988095D02*
X185669104Y-106988095D01*
X185669104Y-106988095D02*
X185573866Y-107035714D01*
X185573866Y-107035714D02*
X185526247Y-107083333D01*
X185526247Y-107083333D02*
X185478628Y-107178571D01*
X185478628Y-107178571D02*
X185431009Y-107369047D01*
X185431009Y-107369047D02*
X185383390Y-107464285D01*
X185383390Y-107464285D02*
X185335771Y-107511904D01*
X185335771Y-107511904D02*
X185240533Y-107559523D01*
X185240533Y-107559523D02*
X185145295Y-107559523D01*
X185145295Y-107559523D02*
X185050057Y-107511904D01*
X185050057Y-107511904D02*
X185002438Y-107464285D01*
X185002438Y-107464285D02*
X184954819Y-107369047D01*
X184954819Y-107369047D02*
X184954819Y-107130952D01*
X184954819Y-107130952D02*
X185002438Y-106988095D01*
X184954819Y-106654761D02*
X185954819Y-106416666D01*
X185954819Y-106416666D02*
X185240533Y-106226190D01*
X185240533Y-106226190D02*
X185954819Y-106035714D01*
X185954819Y-106035714D02*
X184954819Y-105797619D01*
X185954819Y-104892857D02*
X185954819Y-105464285D01*
X185954819Y-105178571D02*
X184954819Y-105178571D01*
X184954819Y-105178571D02*
X185097676Y-105273809D01*
X185097676Y-105273809D02*
X185192914Y-105369047D01*
X185192914Y-105369047D02*
X185240533Y-105464285D01*
X184954819Y-104559523D02*
X184954819Y-103940476D01*
X184954819Y-103940476D02*
X185335771Y-104273809D01*
X185335771Y-104273809D02*
X185335771Y-104130952D01*
X185335771Y-104130952D02*
X185383390Y-104035714D01*
X185383390Y-104035714D02*
X185431009Y-103988095D01*
X185431009Y-103988095D02*
X185526247Y-103940476D01*
X185526247Y-103940476D02*
X185764342Y-103940476D01*
X185764342Y-103940476D02*
X185859580Y-103988095D01*
X185859580Y-103988095D02*
X185907200Y-104035714D01*
X185907200Y-104035714D02*
X185954819Y-104130952D01*
X185954819Y-104130952D02*
X185954819Y-104416666D01*
X185954819Y-104416666D02*
X185907200Y-104511904D01*
X185907200Y-104511904D02*
X185859580Y-104559523D01*
%TO.C,SW2*%
X121727500Y-64700000D02*
X121727500Y-63700000D01*
X121727500Y-77700000D02*
X121727500Y-76700000D01*
X121727500Y-77700000D02*
X122727500Y-77700000D01*
X122727500Y-63700000D02*
X121727500Y-63700000D01*
X134727500Y-77700000D02*
X135727500Y-77700000D01*
X135727500Y-63700000D02*
X134727500Y-63700000D01*
X135727500Y-63700000D02*
X135727500Y-64700000D01*
X135727500Y-76700000D02*
X135727500Y-77700000D01*
%TO.C,SW7*%
X140777500Y-83670000D02*
X140777500Y-82670000D01*
X140777500Y-96670000D02*
X140777500Y-95670000D01*
X140777500Y-96670000D02*
X141777500Y-96670000D01*
X141777500Y-82670000D02*
X140777500Y-82670000D01*
X153777500Y-96670000D02*
X154777500Y-96670000D01*
X154777500Y-82670000D02*
X153777500Y-82670000D01*
X154777500Y-82670000D02*
X154777500Y-83670000D01*
X154777500Y-95670000D02*
X154777500Y-96670000D01*
%TO.C,SW5*%
X102677500Y-83750000D02*
X102677500Y-82750000D01*
X102677500Y-96750000D02*
X102677500Y-95750000D01*
X102677500Y-96750000D02*
X103677500Y-96750000D01*
X103677500Y-82750000D02*
X102677500Y-82750000D01*
X115677500Y-96750000D02*
X116677500Y-96750000D01*
X116677500Y-82750000D02*
X115677500Y-82750000D01*
X116677500Y-82750000D02*
X116677500Y-83750000D01*
X116677500Y-95750000D02*
X116677500Y-96750000D01*
D13*
%TO.C,U1*%
X181189500Y-61380000D02*
X185589500Y-61380000D01*
X181189500Y-62880000D02*
X181189500Y-61380000D01*
X181189500Y-80850000D02*
X181189500Y-82380000D01*
X181189500Y-82380000D02*
X198989500Y-82380000D01*
X185589500Y-59956000D02*
X194584500Y-59956000D01*
X185589500Y-61380000D02*
X185589500Y-59980000D01*
X194589500Y-59980000D02*
X194589500Y-61380000D01*
X194589500Y-61380000D02*
X198989500Y-61380000D01*
X198989500Y-61380000D02*
X198989500Y-62880000D01*
X198989500Y-82380000D02*
X198989500Y-80850000D01*
D14*
X179960500Y-63989000D02*
G75*
G03*
X179760500Y-63989000I-100000J0D01*
G01*
X179760500Y-63989000D02*
G75*
G03*
X179960500Y-63989000I100000J0D01*
G01*
D12*
%TO.C,SW11*%
X140790000Y-102720000D02*
X140790000Y-101720000D01*
X140790000Y-115720000D02*
X140790000Y-114720000D01*
X140790000Y-115720000D02*
X141790000Y-115720000D01*
X141790000Y-101720000D02*
X140790000Y-101720000D01*
X153790000Y-115720000D02*
X154790000Y-115720000D01*
X154790000Y-101720000D02*
X153790000Y-101720000D01*
X154790000Y-101720000D02*
X154790000Y-102720000D01*
X154790000Y-114720000D02*
X154790000Y-115720000D01*
%TO.C,SW10*%
X121727500Y-102800000D02*
X121727500Y-101800000D01*
X121727500Y-115800000D02*
X121727500Y-114800000D01*
X121727500Y-115800000D02*
X122727500Y-115800000D01*
X122727500Y-101800000D02*
X121727500Y-101800000D01*
X134727500Y-115800000D02*
X135727500Y-115800000D01*
X135727500Y-101800000D02*
X134727500Y-101800000D01*
X135727500Y-101800000D02*
X135727500Y-102800000D01*
X135727500Y-114800000D02*
X135727500Y-115800000D01*
%TO.C,SW1*%
X102677500Y-64700000D02*
X102677500Y-63700000D01*
X102677500Y-77700000D02*
X102677500Y-76700000D01*
X102677500Y-77700000D02*
X103677500Y-77700000D01*
X103677500Y-63700000D02*
X102677500Y-63700000D01*
X115677500Y-77700000D02*
X116677500Y-77700000D01*
X116677500Y-63700000D02*
X115677500Y-63700000D01*
X116677500Y-63700000D02*
X116677500Y-64700000D01*
X116677500Y-76700000D02*
X116677500Y-77700000D01*
%TO.C,SW8*%
X159827500Y-83750000D02*
X159827500Y-82750000D01*
X159827500Y-96750000D02*
X159827500Y-95750000D01*
X159827500Y-96750000D02*
X160827500Y-96750000D01*
X160827500Y-82750000D02*
X159827500Y-82750000D01*
X172827500Y-96750000D02*
X173827500Y-96750000D01*
X173827500Y-82750000D02*
X172827500Y-82750000D01*
X173827500Y-82750000D02*
X173827500Y-83750000D01*
X173827500Y-95750000D02*
X173827500Y-96750000D01*
%TO.C,SW6*%
X121727500Y-83750000D02*
X121727500Y-82750000D01*
X121727500Y-96750000D02*
X121727500Y-95750000D01*
X121727500Y-96750000D02*
X122727500Y-96750000D01*
X122727500Y-82750000D02*
X121727500Y-82750000D01*
X134727500Y-96750000D02*
X135727500Y-96750000D01*
X135727500Y-82750000D02*
X134727500Y-82750000D01*
X135727500Y-82750000D02*
X135727500Y-83750000D01*
X135727500Y-95750000D02*
X135727500Y-96750000D01*
%TO.C,SW9*%
X102677500Y-102800000D02*
X102677500Y-101800000D01*
X102677500Y-115800000D02*
X102677500Y-114800000D01*
X102677500Y-115800000D02*
X103677500Y-115800000D01*
X103677500Y-101800000D02*
X102677500Y-101800000D01*
X115677500Y-115800000D02*
X116677500Y-115800000D01*
X116677500Y-101800000D02*
X115677500Y-101800000D01*
X116677500Y-101800000D02*
X116677500Y-102800000D01*
X116677500Y-114800000D02*
X116677500Y-115800000D01*
%TO.C,SW12*%
X159827500Y-102800000D02*
X159827500Y-101800000D01*
X159827500Y-115800000D02*
X159827500Y-114800000D01*
X159827500Y-115800000D02*
X160827500Y-115800000D01*
X160827500Y-101800000D02*
X159827500Y-101800000D01*
X172827500Y-115800000D02*
X173827500Y-115800000D01*
X173827500Y-101800000D02*
X172827500Y-101800000D01*
X173827500Y-101800000D02*
X173827500Y-102800000D01*
X173827500Y-114800000D02*
X173827500Y-115800000D01*
%TO.C,SW3*%
X140777500Y-64700000D02*
X140777500Y-63700000D01*
X140777500Y-77700000D02*
X140777500Y-76700000D01*
X140777500Y-77700000D02*
X141777500Y-77700000D01*
X141777500Y-63700000D02*
X140777500Y-63700000D01*
X153777500Y-77700000D02*
X154777500Y-77700000D01*
X154777500Y-63700000D02*
X153777500Y-63700000D01*
X154777500Y-63700000D02*
X154777500Y-64700000D01*
X154777500Y-76700000D02*
X154777500Y-77700000D01*
D15*
%TO.C,SW13*%
X186440000Y-108060000D02*
X186440000Y-103450000D01*
X189200000Y-108060000D02*
X186440000Y-108060000D01*
X191300000Y-108060000D02*
X191900000Y-108060000D01*
X193600000Y-108060000D02*
X194400000Y-108060000D01*
X196100000Y-108060000D02*
X199060000Y-108060000D01*
X199060000Y-103450000D02*
X199060000Y-108060000D01*
X186450000Y-99050000D02*
X186450000Y-94440000D01*
X186450000Y-94440000D02*
X189150000Y-94440000D01*
X191350000Y-94440000D02*
X194150000Y-94440000D01*
X196350000Y-94440000D02*
X199060000Y-94440000D01*
X199060000Y-94440000D02*
X199060000Y-99050000D01*
D12*
%TO.C,SW4*%
X159827500Y-64700000D02*
X159827500Y-63700000D01*
X159827500Y-77700000D02*
X159827500Y-76700000D01*
X159827500Y-77700000D02*
X160827500Y-77700000D01*
X160827500Y-63700000D02*
X159827500Y-63700000D01*
X172827500Y-77700000D02*
X173827500Y-77700000D01*
X173827500Y-63700000D02*
X172827500Y-63700000D01*
X173827500Y-63700000D02*
X173827500Y-64700000D01*
X173827500Y-76700000D02*
X173827500Y-77700000D01*
D16*
%TO.C,LED6*%
X126511000Y-93500000D02*
G75*
G03*
X125749000Y-93500000I-381000J0D01*
G01*
X125749000Y-93500000D02*
G75*
G03*
X126511000Y-93500000I381000J0D01*
G01*
%TO.C,LED9*%
X107461000Y-112550000D02*
G75*
G03*
X106699000Y-112550000I-381000J0D01*
G01*
X106699000Y-112550000D02*
G75*
G03*
X107461000Y-112550000I381000J0D01*
G01*
%TO.C,LED1*%
X107461000Y-74450000D02*
G75*
G03*
X106699000Y-74450000I-381000J0D01*
G01*
X106699000Y-74450000D02*
G75*
G03*
X107461000Y-74450000I381000J0D01*
G01*
%TO.C,LED3*%
X145561000Y-74450000D02*
G75*
G03*
X144799000Y-74450000I-381000J0D01*
G01*
X144799000Y-74450000D02*
G75*
G03*
X145561000Y-74450000I381000J0D01*
G01*
%TO.C,LED4*%
X164601000Y-74450000D02*
G75*
G03*
X163839000Y-74450000I-381000J0D01*
G01*
X163839000Y-74450000D02*
G75*
G03*
X164601000Y-74450000I381000J0D01*
G01*
%TO.C,LED5*%
X107461000Y-93500000D02*
G75*
G03*
X106699000Y-93500000I-381000J0D01*
G01*
X106699000Y-93500000D02*
G75*
G03*
X107461000Y-93500000I381000J0D01*
G01*
%TO.C,LED8*%
X164611000Y-93500000D02*
G75*
G03*
X163849000Y-93500000I-381000J0D01*
G01*
X163849000Y-93500000D02*
G75*
G03*
X164611000Y-93500000I381000J0D01*
G01*
%TO.C,LED7*%
X145561000Y-93430000D02*
G75*
G03*
X144799000Y-93430000I-381000J0D01*
G01*
X144799000Y-93430000D02*
G75*
G03*
X145561000Y-93430000I381000J0D01*
G01*
%TO.C,LED12*%
X164611000Y-112540000D02*
G75*
G03*
X163849000Y-112540000I-381000J0D01*
G01*
X163849000Y-112540000D02*
G75*
G03*
X164611000Y-112540000I381000J0D01*
G01*
%TO.C,LED2*%
X126511000Y-74440000D02*
G75*
G03*
X125749000Y-74440000I-381000J0D01*
G01*
X125749000Y-74440000D02*
G75*
G03*
X126511000Y-74440000I381000J0D01*
G01*
%TO.C,LED10*%
X126521000Y-112550000D02*
G75*
G03*
X125759000Y-112550000I-381000J0D01*
G01*
X125759000Y-112550000D02*
G75*
G03*
X126521000Y-112550000I381000J0D01*
G01*
%TO.C,LED11*%
X145571000Y-112470000D02*
G75*
G03*
X144809000Y-112470000I-381000J0D01*
G01*
X144809000Y-112470000D02*
G75*
G03*
X145571000Y-112470000I381000J0D01*
G01*
%TD*%
M02*
